<?xml version="1.0" encoding="UTF-8"?> <svg xmlns="http://www.w3.org/2000/svg" xmlns:xlink="http://www.w3.org/1999/xlink" viewBox="0 0 384 384"><defs><style> .cls-1, .cls-2 { fill: none; } .cls-3 { mask: url(#mask); } .cls-4 { font-size: 7.22px; } .cls-4, .cls-5, .cls-6 { font-family: Lexend-Regular, Lexend; } .cls-4, .cls-5, .cls-6, .cls-7, .cls-8 { fill: #121420; } .cls-5 { font-size: 7.06px; } .cls-6 { font-size: 7.62px; } .cls-9 { opacity: .1; } .cls-9, .cls-10, .cls-11 { mix-blend-mode: multiply; } .cls-10 { opacity: .2; } .cls-12 { fill: url(#linear-gradient-8); } .cls-13 { fill: url(#linear-gradient-7); } .cls-14 { fill: url(#linear-gradient-5); } .cls-15 { fill: url(#linear-gradient-6); } .cls-16 { fill: url(#linear-gradient-9); } .cls-17 { fill: url(#linear-gradient-4); } .cls-18 { fill: url(#linear-gradient-3); } .cls-19 { fill: url(#linear-gradient-2); } .cls-11 { opacity: .7; } .cls-20 { fill: url(#linear-gradient); } .cls-21 { isolation: isolate; } .cls-2 { stroke: #121420; stroke-miterlimit: 2; stroke-width: .36px; } .cls-22 { mask: url(#mask-2); } .cls-23 { mask: url(#mask-3); } .cls-24 { mask: url(#mask-4); } .cls-25 { mask: url(#mask-5); } .cls-26 { mask: url(#mask-7); } .cls-27 { mask: url(#mask-6); } .cls-28 { mask: url(#mask-1); } .cls-29 { mask: url(#mask-9); } .cls-30 { mask: url(#mask-8); } .cls-31 { clip-path: url(#clippath-17); } .cls-32 { clip-path: url(#clippath-19); } .cls-33 { clip-path: url(#clippath-11); } .cls-34 { clip-path: url(#clippath-16); } .cls-35 { clip-path: url(#clippath-18); } .cls-36 { clip-path: url(#clippath-10); } .cls-37 { clip-path: url(#clippath-15); } .cls-38 { clip-path: url(#clippath-13); } .cls-39 { clip-path: url(#clippath-14); } .cls-40 { clip-path: url(#clippath-12); } .cls-41 { clip-path: url(#clippath-20); } .cls-42 { clip-path: url(#clippath-1); } .cls-43 { clip-path: url(#clippath-3); } .cls-44 { clip-path: url(#clippath-4); } .cls-45 { clip-path: url(#clippath-2); } .cls-46 { clip-path: url(#clippath-7); } .cls-47 { clip-path: url(#clippath-6); } .cls-48 { clip-path: url(#clippath-9); } .cls-49 { clip-path: url(#clippath-8); } .cls-50 { clip-path: url(#clippath-5); } .cls-51 { letter-spacing: 0em; } .cls-52 { letter-spacing: 0em; } .cls-53 { letter-spacing: 0em; } .cls-54 { fill: url(#linear-gradient-10); } .cls-55 { fill: url(#linear-gradient-11); } .cls-56 { fill: url(#linear-gradient-12); } .cls-57 { fill: url(#linear-gradient-13); } .cls-58 { fill: url(#linear-gradient-19); } .cls-59 { fill: url(#linear-gradient-14); } .cls-60 { fill: url(#linear-gradient-21); } .cls-61 { fill: url(#linear-gradient-20); } .cls-62 { fill: url(#linear-gradient-22); } .cls-63 { fill: url(#linear-gradient-23); } .cls-64 { fill: url(#linear-gradient-28); } .cls-65 { fill: url(#linear-gradient-25); } .cls-66 { fill: url(#linear-gradient-31); } .cls-67 { fill: url(#linear-gradient-30); } .cls-68 { fill: url(#linear-gradient-15); } .cls-69 { fill: url(#linear-gradient-16); } .cls-70 { fill: url(#linear-gradient-17); } .cls-71 { fill: url(#linear-gradient-18); } .cls-72 { fill: url(#linear-gradient-27); } .cls-73 { fill: url(#linear-gradient-24); } .cls-74 { fill: url(#linear-gradient-26); } .cls-75 { fill: url(#linear-gradient-29); } .cls-8 { fill-rule: evenodd; } .cls-76 { letter-spacing: -.09em; } .cls-77 { letter-spacing: -.06em; } .cls-78 { letter-spacing: -.02em; } .cls-79 { letter-spacing: -.02em; } .cls-80 { letter-spacing: -.02em; } .cls-81 { letter-spacing: -.02em; } .cls-82 { letter-spacing: -.05em; } .cls-83 { letter-spacing: -.03em; } .cls-84 { letter-spacing: 0em; } .cls-85 { letter-spacing: 0em; } .cls-86 { letter-spacing: .02em; } .cls-87 { letter-spacing: .03em; } .cls-88 { letter-spacing: .03em; } .cls-89 { letter-spacing: .02em; } .cls-90 { letter-spacing: .02em; } .cls-91 { letter-spacing: .02em; } .cls-92 { letter-spacing: .02em; } .cls-93 { letter-spacing: .02em; } .cls-94 { letter-spacing: .02em; } .cls-95 { letter-spacing: .02em; } .cls-96 { letter-spacing: .02em; } .cls-97 { clip-path: url(#clippath); } .cls-98 { letter-spacing: .02em; } .cls-99 { letter-spacing: .02em; } .cls-100 { letter-spacing: .02em; } .cls-101 { letter-spacing: .02em; } .cls-102 { letter-spacing: .01em; } .cls-103 { letter-spacing: .01em; } .cls-104 { letter-spacing: .02em; } .cls-105 { letter-spacing: .01em; } .cls-106 { letter-spacing: .05em; } .cls-107 { letter-spacing: .03em; } .cls-108 { letter-spacing: .04em; } .cls-109 { letter-spacing: .04em; } .cls-110 { letter-spacing: .03em; } .cls-111 { letter-spacing: .03em; } .cls-112 { letter-spacing: .03em; } .cls-113 { letter-spacing: 0em; } .cls-114 { letter-spacing: 0em; } .cls-115 { letter-spacing: 0em; } .cls-116 { letter-spacing: 0em; } .cls-117 { letter-spacing: .01em; } .cls-118 { letter-spacing: .01em; } .cls-119 { letter-spacing: 0em; } .cls-120 { letter-spacing: 0em; } </style><clipPath id="clippath"><rect class="cls-1" width="384" height="384"></rect></clipPath><clipPath id="clippath-1"><path class="cls-1" d="M376.82,125.61h-19.21c-.71,0-1.36.42-1.64,1.07-.48,1.11-1.64,1.75-2.83,1.59-1.2-.16-2.13-1.1-2.3-2.3-.16-1.2.48-2.35,1.59-2.84.66-.28,1.08-.93,1.08-1.64V7.18c0-3.96-3.21-7.18-7.18-7.18h-75.36c-3.96,0-7.18,3.21-7.18,7.18v114.32c0,.71.42,1.36,1.08,1.64,1.1.48,1.75,1.64,1.59,2.84-.16,1.19-1.1,2.13-2.3,2.3-1.19.17-2.35-.48-2.83-1.59-.29-.65-.93-1.07-1.65-1.07,0,0-252.49,0-252.49,0-3.96,0-7.18,3.21-7.18,7.18v244.04c0,3.97,3.21,7.18,7.18,7.18h369.64c3.96,0,7.18-3.21,7.18-7.18v-244.04c0-3.96-3.21-7.18-7.18-7.18M9.69,377.9c-1.98,0-3.59-1.61-3.59-3.59s1.61-3.59,3.59-3.59,3.59,1.61,3.59,3.59-1.61,3.59-3.59,3.59M9.69,138.89c-1.98,0-3.59-1.61-3.59-3.59s1.61-3.59,3.59-3.59,3.59,1.61,3.59,3.59-1.61,3.59-3.59,3.59"></path></clipPath><linearGradient id="linear-gradient" x1="-1461.75" y1="2708.45" x2="-1460.75" y2="2708.45" gradientTransform="translate(-1213987.33 655304.05) rotate(90) scale(448.29 -448.29)" gradientUnits="userSpaceOnUse"><stop offset="0" stop-color="#fff"></stop><stop offset=".15" stop-color="#fff"></stop><stop offset=".45" stop-color="#efefef"></stop><stop offset=".7" stop-color="#fff"></stop><stop offset="1" stop-color="#efefef"></stop></linearGradient><clipPath id="clippath-2"><polygon class="cls-1" points="359.6 348.18 359.59 348.65 359.48 350.09 359.25 351.44 358.9 352.67 358.5 353.69 357.94 354.74 357.3 355.67 356.54 356.54 355.67 357.3 354.74 357.94 353.69 358.5 352.67 358.9 351.43 359.25 350.09 359.48 348.65 359.59 348.18 359.6 35.82 359.6 35.35 359.59 33.91 359.48 32.57 359.25 31.33 358.9 30.31 358.5 29.26 357.94 28.33 357.3 27.46 356.54 26.7 355.67 26.06 354.74 25.5 353.69 25.1 352.67 24.75 351.43 24.52 350.09 24.41 348.65 24.4 348.18 24.4 161.43 24.41 160.96 24.52 159.52 24.75 158.17 25.1 156.94 25.5 155.92 26.06 154.87 26.7 153.93 27.46 153.07 28.33 152.31 29.26 151.67 30.31 151.11 31.33 150.71 32.57 150.36 33.91 150.13 35.35 150.02 35.82 150.01 348.18 150.01 348.65 150.02 350.09 150.12 351.43 150.36 352.67 150.71 353.69 151.11 354.74 151.67 355.67 152.31 356.54 153.07 357.3 153.93 357.94 154.87 358.5 155.92 358.9 156.94 359.25 158.17 359.48 159.52 359.59 160.96 359.6 161.43 359.6 348.18"></polygon></clipPath><linearGradient id="linear-gradient-2" x1="-1461.4" y1="2708.64" x2="-1460.4" y2="2708.64" gradientTransform="translate(-1019778.84 550374.79) rotate(90) scale(376.56 -376.56)" xlink:href="#linear-gradient"></linearGradient><clipPath id="clippath-3"><rect class="cls-1" x="47.51" y="106.08" width="302.76" height="245.59"></rect></clipPath><clipPath id="clippath-4"><polygon class="cls-1" points="287.83 96.13 287.3 96.09 286.79 95.97 286.54 95.89 286.06 95.65 285.62 95.34 285.43 95.16 285.08 94.76 284.81 94.3 284.7 94.06 284.55 93.55 284.47 93.02 284.46 92.75 284.46 24.96 284.5 24.43 284.62 23.91 284.7 23.66 284.94 23.18 285.25 22.74 285.43 22.55 285.83 22.21 286.29 21.93 286.54 21.83 287.04 21.67 287.57 21.59 287.84 21.58 329.44 21.58 329.97 21.62 330.48 21.74 330.74 21.83 331.21 22.06 331.65 22.37 331.84 22.55 332.19 22.96 332.46 23.41 332.57 23.66 332.72 24.17 332.8 24.69 332.81 24.96 332.81 92.76 332.77 93.28 332.65 93.8 332.57 94.06 332.33 94.53 332.02 94.97 331.84 95.16 331.44 95.51 330.98 95.78 330.74 95.89 330.23 96.04 329.7 96.12 329.44 96.13 287.83 96.13 287.83 96.13"></polygon></clipPath><linearGradient id="linear-gradient-3" x1="-1453.92" y1="2713.36" x2="-1452.92" y2="2713.36" gradientTransform="translate(-228057.06 122383.47) rotate(90) scale(84.16 -84.16)" gradientUnits="userSpaceOnUse"><stop offset="0" stop-color="#fff"></stop><stop offset=".15" stop-color="#fff"></stop><stop offset="1" stop-color="#efefef"></stop></linearGradient><clipPath id="clippath-5"><polygon class="cls-1" points="370.5 149.49 370.26 148.26 369.88 146.93 369.87 146.9 369.38 145.66 368.77 144.54 368.7 144.42 367.98 143.39 367.15 142.46 366.34 141.74 352.56 150.68 352.67 150.71 353.69 151.11 354.74 151.67 355.67 152.31 356.54 153.07 357.3 153.93 357.94 154.87 358.5 155.92 358.9 156.94 359.25 158.17 359.48 159.52 359.59 160.96 359.6 161.43 359.6 348.18 359.59 348.65 359.48 350.09 359.25 351.44 358.9 352.67 358.5 353.69 357.94 354.74 357.3 355.67 356.54 356.54 355.67 357.3 354.74 357.94 353.69 358.5 352.67 358.9 352.56 358.93 366.34 367.87 367.15 367.15 367.97 366.23 368.7 365.2 368.77 365.08 369.37 363.95 369.87 362.72 369.88 362.69 370.26 361.36 370.5 360.12 370.65 358.6 370.68 357.49 370.68 152.12 370.65 151.01 370.5 149.49"></polygon></clipPath><linearGradient id="linear-gradient-4" x1="-1458.59" y1="2710.4" x2="-1457.59" y2="2710.4" gradientTransform="translate(-442472.64 238484.05) rotate(90) scale(163.38 -163.38)" gradientUnits="userSpaceOnUse"><stop offset="0" stop-color="#efefef"></stop><stop offset=".15" stop-color="#efefef"></stop><stop offset=".45" stop-color="#eee"></stop><stop offset=".7" stop-color="#efefef"></stop><stop offset="1" stop-color="#eee"></stop></linearGradient><clipPath id="clippath-6"><rect class="cls-1" x="352.56" y="141.74" width="18.12" height="226.13"></rect></clipPath><clipPath id="clippath-7"><polygon class="cls-1" points="370.5 149.49 370.26 148.26 369.88 146.93 369.87 146.9 369.38 145.66 368.77 144.54 368.7 144.42 367.98 143.39 367.15 142.46 366.34 141.74 352.56 150.68 352.67 150.71 353.69 151.11 354.74 151.67 355.67 152.31 356.54 153.07 357.3 153.93 357.94 154.87 358.5 155.92 358.9 156.94 359.25 158.17 359.48 159.52 359.59 160.96 359.6 161.43 359.6 348.18 359.59 348.65 359.48 350.09 359.25 351.44 358.9 352.67 358.5 353.69 357.94 354.74 357.3 355.67 356.54 356.54 355.67 357.3 354.74 357.94 353.69 358.5 352.67 358.9 352.56 358.93 366.34 367.87 367.15 367.15 367.97 366.23 368.7 365.2 368.77 365.08 369.37 363.95 369.87 362.72 369.88 362.69 370.26 361.36 370.5 360.12 370.65 358.6 370.68 357.49 370.68 152.12 370.65 151.01 370.5 149.49"></polygon></clipPath><linearGradient id="linear-gradient-5" x1="-1462.62" y1="2711.42" x2="-1461.62" y2="2711.42" gradientTransform="translate(-612771.12 330883.8) rotate(90) scale(226.13 -226.13)" gradientUnits="userSpaceOnUse"><stop offset="0" stop-color="#000"></stop><stop offset="1" stop-color="#fff"></stop></linearGradient><mask id="mask" x="352.56" y="141.74" width="18.12" height="226.13" maskUnits="userSpaceOnUse"><rect class="cls-14" x="352.56" y="141.74" width="18.12" height="226.13"></rect></mask><linearGradient id="linear-gradient-6" x1="-1462.62" y1="2711.42" x2="-1461.62" y2="2711.42" gradientTransform="translate(-612771.12 330883.8) rotate(90) scale(226.13 -226.13)" gradientUnits="userSpaceOnUse"><stop offset="0" stop-color="#000"></stop><stop offset="1" stop-color="#000"></stop></linearGradient><clipPath id="clippath-8"><polygon class="cls-1" points="351.43 359.25 350.09 359.48 348.65 359.59 348.18 359.6 35.82 359.6 35.35 359.59 33.91 359.48 32.57 359.25 31.46 358.94 17.67 367.88 17.77 367.97 18.8 368.7 18.92 368.77 20.05 369.38 21.28 369.87 21.31 369.88 22.64 370.26 23.88 370.5 25.4 370.65 26.51 370.69 357.49 370.69 358.6 370.65 360.12 370.5 361.35 370.26 362.68 369.88 362.71 369.87 363.94 369.38 365.07 368.77 365.19 368.7 366.22 367.98 366.34 367.87 352.56 358.93 351.43 359.25"></polygon></clipPath><linearGradient id="linear-gradient-7" x1="-1460.27" y1="2709.37" x2="-1459.27" y2="2709.37" gradientTransform="translate(-667770.34 360255.02) rotate(90) scale(246.54 -246.54)" xlink:href="#linear-gradient-4"></linearGradient><clipPath id="clippath-9"><rect class="cls-1" x="17.67" y="358.93" width="348.67" height="11.75"></rect></clipPath><clipPath id="clippath-10"><polygon class="cls-1" points="351.43 359.25 350.09 359.48 348.65 359.59 348.18 359.6 35.82 359.6 35.35 359.59 33.91 359.48 32.57 359.25 31.46 358.94 17.67 367.88 17.77 367.97 18.8 368.7 18.92 368.77 20.05 369.38 21.28 369.87 21.31 369.88 22.64 370.26 23.88 370.5 25.4 370.65 26.51 370.69 357.49 370.69 358.6 370.65 360.12 370.5 361.35 370.26 362.68 369.88 362.71 369.87 363.94 369.38 365.07 368.77 365.19 368.7 366.22 367.98 366.34 367.87 352.56 358.93 351.43 359.25"></polygon></clipPath><linearGradient id="linear-gradient-8" x1="-1460.87" y1="2706.67" x2="-1459.87" y2="2706.67" gradientTransform="translate(509378.67 944097.92) scale(348.67 -348.67)" xlink:href="#linear-gradient-5"></linearGradient><mask id="mask-1" x="17.67" y="358.93" width="348.67" height="11.75" maskUnits="userSpaceOnUse"><rect class="cls-12" x="17.67" y="358.93" width="348.67" height="11.75"></rect></mask><linearGradient id="linear-gradient-9" x1="-1460.87" y1="2706.67" x2="-1459.87" y2="2706.67" gradientTransform="translate(509378.67 944097.92) scale(348.67 -348.67)" xlink:href="#linear-gradient-6"></linearGradient><clipPath id="clippath-11"><polygon class="cls-1" points="32.57 150.36 33.91 150.13 35.35 150.02 35.82 150.01 348.18 150.01 348.65 150.02 350.09 150.12 351.43 150.36 352.56 150.68 366.34 141.74 366.23 141.64 365.2 140.91 365.08 140.84 363.95 140.23 362.72 139.74 362.69 139.73 361.36 139.34 360.12 139.11 358.6 138.95 357.49 138.92 26.51 138.92 25.4 138.96 23.88 139.11 22.65 139.34 21.32 139.72 21.29 139.74 20.06 140.23 18.93 140.83 18.81 140.91 17.78 141.63 17.67 141.73 31.46 150.67 32.57 150.36"></polygon></clipPath><linearGradient id="linear-gradient-10" x1="-1460.27" y1="2709.35" x2="-1459.27" y2="2709.35" gradientTransform="translate(-667813.39 360056.14) rotate(90) scale(246.56 -246.56)" xlink:href="#linear-gradient"></linearGradient><clipPath id="clippath-12"><polygon class="cls-1" points="31.33 358.9 30.31 358.5 29.26 357.94 28.33 357.3 27.46 356.54 26.7 355.67 26.06 354.74 25.5 353.69 25.1 352.67 24.75 351.43 24.52 350.09 24.41 348.65 24.4 348.18 24.4 161.43 24.41 160.96 24.52 159.52 24.75 158.17 25.1 156.94 25.5 155.92 26.06 154.87 26.7 153.93 27.46 153.07 28.33 152.31 29.26 151.67 30.31 151.11 31.33 150.71 31.46 150.67 17.67 141.73 16.85 142.45 16.03 143.38 15.3 144.41 15.23 144.53 14.63 145.66 14.13 146.89 14.12 146.92 13.74 148.25 13.5 149.49 13.35 151.01 13.31 152.12 13.31 357.49 13.35 358.6 13.5 360.12 13.74 361.35 14.12 362.68 14.13 362.71 14.62 363.94 15.22 365.07 15.3 365.19 16.02 366.22 16.85 367.15 17.67 367.88 31.46 358.94 31.33 358.9"></polygon></clipPath><linearGradient id="linear-gradient-11" x1="-1458.59" y1="2710.42" x2="-1457.59" y2="2710.42" gradientTransform="translate(-442872.99 238511.7) rotate(90) scale(163.4 -163.4)" xlink:href="#linear-gradient"></linearGradient><clipPath id="clippath-13"><polygon class="cls-1" points="336.68 21.46 336.44 20.69 336.28 20.33 335.88 19.64 335.62 19.34 332.6 23.76 332.72 24.17 332.8 24.69 332.81 24.96 332.81 92.76 332.77 93.28 332.65 93.8 332.6 93.96 335.62 98.39 335.63 98.39 336.09 97.74 336.44 97.02 336.58 96.64 336.75 95.86 336.81 95.07 336.81 22.64 336.79 22.25 336.68 21.46"></polygon></clipPath><linearGradient id="linear-gradient-12" x1="-1449.04" y1="2716.43" x2="-1448.04" y2="2716.43" gradientTransform="translate(-151517.03 81034.88) rotate(90) scale(55.9 -55.9)" xlink:href="#linear-gradient-4"></linearGradient><clipPath id="clippath-14"><rect class="cls-1" x="332.6" y="19.34" width="4.21" height="79.05"></rect></clipPath><clipPath id="clippath-15"><polygon class="cls-1" points="336.68 21.46 336.44 20.69 336.28 20.33 335.88 19.64 335.62 19.34 332.6 23.76 332.72 24.17 332.8 24.69 332.81 24.96 332.81 92.76 332.77 93.28 332.65 93.8 332.6 93.96 335.62 98.39 335.63 98.39 336.09 97.74 336.44 97.02 336.58 96.64 336.75 95.86 336.81 95.07 336.81 22.64 336.79 22.25 336.68 21.46"></polygon></clipPath><linearGradient id="linear-gradient-13" x1="-1460.88" y1="2719.12" x2="-1459.88" y2="2719.12" gradientTransform="translate(-214619.44 115506.06) rotate(90) scale(79.05 -79.05)" xlink:href="#linear-gradient-5"></linearGradient><mask id="mask-2" x="332.6" y="19.34" width="4.21" height="79.05" maskUnits="userSpaceOnUse"><rect class="cls-57" x="332.6" y="19.34" width="4.21" height="79.05"></rect></mask><linearGradient id="linear-gradient-14" x1="-1460.88" y1="2719.12" x2="-1459.88" y2="2719.12" gradientTransform="translate(-214619.44 115506.06) rotate(90) scale(79.05 -79.05)" xlink:href="#linear-gradient-6"></linearGradient><clipPath id="clippath-16"><polygon class="cls-1" points="332.57 94.06 332.33 94.53 332.02 94.97 331.84 95.16 331.44 95.51 330.98 95.78 330.74 95.89 330.23 96.04 329.7 96.12 329.44 96.13 287.83 96.13 287.83 96.13 287.3 96.09 286.79 95.97 286.54 95.89 286.06 95.65 285.62 95.34 285.43 95.16 285.08 94.76 284.81 94.3 284.7 94.06 284.67 93.96 281.66 98.38 281.91 98.68 282.2 98.95 282.85 99.41 283.57 99.76 283.95 99.9 284.73 100.07 285.52 100.13 331.75 100.13 332.15 100.11 332.93 100 333.7 99.76 334.07 99.6 334.75 99.2 335.36 98.68 335.62 98.39 332.6 93.96 332.57 94.06"></polygon></clipPath><linearGradient id="linear-gradient-15" x1="-1442.85" y1="2720.36" x2="-1441.85" y2="2720.36" gradientTransform="translate(-106269.32 56605.35) rotate(90) scale(39.18 -39.18)" xlink:href="#linear-gradient-4"></linearGradient><clipPath id="clippath-17"><rect class="cls-1" x="281.66" y="93.96" width="53.97" height="6.17"></rect></clipPath><clipPath id="clippath-18"><polygon class="cls-1" points="332.57 94.06 332.33 94.53 332.02 94.97 331.84 95.16 331.44 95.51 330.98 95.78 330.74 95.89 330.23 96.04 329.7 96.12 329.44 96.13 287.83 96.13 287.83 96.13 287.3 96.09 286.79 95.97 286.54 95.89 286.06 95.65 285.62 95.34 285.43 95.16 285.08 94.76 284.81 94.3 284.7 94.06 284.67 93.96 281.66 98.38 281.91 98.68 282.2 98.95 282.85 99.41 283.57 99.76 283.95 99.9 284.73 100.07 285.52 100.13 331.75 100.13 332.15 100.11 332.93 100 333.7 99.76 334.07 99.6 334.75 99.2 335.36 98.68 335.62 98.39 332.6 93.96 332.57 94.06"></polygon></clipPath><linearGradient id="linear-gradient-16" x1="-1446.22" y1="2703.36" x2="-1445.22" y2="2703.36" gradientTransform="translate(78328.99 145987.6) scale(53.97 -53.97)" xlink:href="#linear-gradient-5"></linearGradient><mask id="mask-3" x="281.66" y="93.96" width="53.97" height="6.17" maskUnits="userSpaceOnUse"><rect class="cls-69" x="281.66" y="93.96" width="53.97" height="6.17"></rect></mask><linearGradient id="linear-gradient-17" x1="-1446.22" y1="2703.36" x2="-1445.22" y2="2703.36" gradientTransform="translate(78328.99 145987.6) scale(53.97 -53.97)" xlink:href="#linear-gradient-6"></linearGradient><clipPath id="clippath-19"><polygon class="cls-1" points="284.55 93.55 284.47 93.02 284.46 92.75 284.46 24.96 284.5 24.43 284.62 23.91 284.67 23.76 281.64 19.32 281.18 19.98 280.83 20.69 280.69 21.07 280.52 21.85 280.46 22.64 280.46 95.07 280.48 95.47 280.59 96.25 280.83 97.02 280.99 97.38 281.4 98.07 281.66 98.38 284.67 93.96 284.55 93.55"></polygon></clipPath><linearGradient id="linear-gradient-18" x1="-1449.05" y1="2716.45" x2="-1448.05" y2="2716.45" gradientTransform="translate(-151594.58 81046.59) rotate(90) scale(55.91 -55.91)" xlink:href="#linear-gradient-3"></linearGradient><clipPath id="clippath-20"><polygon class="cls-1" points="284.7 23.66 284.94 23.18 285.25 22.74 285.43 22.55 285.83 22.21 286.29 21.93 286.54 21.83 287.04 21.67 287.57 21.59 287.84 21.58 329.44 21.58 329.97 21.62 330.48 21.74 330.74 21.83 331.21 22.06 331.65 22.37 331.84 22.55 332.19 22.96 332.46 23.41 332.57 23.66 332.6 23.76 335.62 19.34 335.36 19.03 335.07 18.76 334.42 18.3 333.7 17.95 333.32 17.82 332.54 17.64 331.75 17.58 285.52 17.58 285.12 17.6 284.33 17.72 283.57 17.95 283.21 18.11 282.52 18.52 281.91 19.03 281.64 19.32 284.67 23.76 284.7 23.66"></polygon></clipPath><linearGradient id="linear-gradient-19" x1="-1442.86" y1="2720.33" x2="-1441.86" y2="2720.33" gradientTransform="translate(-106297.43 56544.02) rotate(90) scale(39.19 -39.19)" xlink:href="#linear-gradient-3"></linearGradient><linearGradient id="linear-gradient-20" x1="-1301.56" y1="2640.86" x2="-1300.56" y2="2640.86" gradientTransform="translate(7796.92 15443.57) scale(5.78 -5.78)" gradientUnits="userSpaceOnUse"><stop offset="0" stop-color="#000"></stop><stop offset=".02" stop-color="#2f2f2f"></stop><stop offset=".05" stop-color="#5a5a5a"></stop><stop offset=".08" stop-color="#828282"></stop><stop offset=".11" stop-color="#a4a4a4"></stop><stop offset=".14" stop-color="silver"></stop><stop offset=".18" stop-color="#d7d7d7"></stop><stop offset=".22" stop-color="#e9e9e9"></stop><stop offset=".27" stop-color="#f5f5f5"></stop><stop offset=".34" stop-color="#fcfcfc"></stop><stop offset=".5" stop-color="#fff"></stop><stop offset=".66" stop-color="#fcfcfc"></stop><stop offset=".73" stop-color="#f5f5f5"></stop><stop offset=".78" stop-color="#e9e9e9"></stop><stop offset=".82" stop-color="#d7d7d7"></stop><stop offset=".86" stop-color="silver"></stop><stop offset=".89" stop-color="#a4a4a4"></stop><stop offset=".92" stop-color="#828282"></stop><stop offset=".95" stop-color="#5a5a5a"></stop><stop offset=".98" stop-color="#2f2f2f"></stop><stop offset="1" stop-color="#000"></stop></linearGradient><mask id="mask-4" x="0" y="0" width="384" height="384" maskUnits="userSpaceOnUse"><rect class="cls-61" x="0" width="384" height="384"></rect></mask><linearGradient id="linear-gradient-21" x1="-1301.56" y1="2670.62" x2="-1300.56" y2="2670.62" gradientTransform="translate(7796.92 15443.57) scale(5.78 -5.78)" gradientUnits="userSpaceOnUse"><stop offset="0" stop-color="#fff"></stop><stop offset=".5" stop-color="#fff"></stop><stop offset="1" stop-color="#fff"></stop></linearGradient><linearGradient id="linear-gradient-22" x1="-1234.88" y1="2614.29" x2="-1233.88" y2="2614.29" gradientTransform="translate(5336.15 10887.41) scale(4.09 -4.09)" xlink:href="#linear-gradient-20"></linearGradient><mask id="mask-5" x="0" y="0" width="384" height="384" maskUnits="userSpaceOnUse"><rect class="cls-62" width="384" height="384"></rect></mask><linearGradient id="linear-gradient-23" x1="-1234.88" y1="2655.53" x2="-1233.88" y2="2655.53" gradientTransform="translate(5336.16 10887.41) scale(4.09 -4.09)" xlink:href="#linear-gradient-21"></linearGradient><linearGradient id="linear-gradient-24" x1="-1396.32" y1="2704.43" x2="-1395.32" y2="2704.43" gradientTransform="translate(19440.77 37820.46) scale(13.91 -13.91)" xlink:href="#linear-gradient-20"></linearGradient><mask id="mask-6" x="0" y="0" width="384" height="384" maskUnits="userSpaceOnUse"><rect class="cls-73" width="384" height="384"></rect></mask><linearGradient id="linear-gradient-25" x1="-1396.32" y1="2692.06" x2="-1395.32" y2="2692.06" gradientTransform="translate(19440.71 37820.36) scale(13.91 -13.91)" xlink:href="#linear-gradient-21"></linearGradient><linearGradient id="linear-gradient-26" x1="-1460.84" y1="2706.53" x2="-1459.84" y2="2706.53" gradientTransform="translate(503848.54 933657.76) scale(344.89 -344.89)" xlink:href="#linear-gradient-20"></linearGradient><mask id="mask-7" x="0" y="0" width="384" height="384" maskUnits="userSpaceOnUse"><rect class="cls-74" width="384" height="384"></rect></mask><linearGradient id="linear-gradient-27" x1="-1460.84" y1="2706.67" x2="-1459.84" y2="2706.67" gradientTransform="translate(503848.45 933657.59) scale(344.89 -344.89)" xlink:href="#linear-gradient-21"></linearGradient><linearGradient id="linear-gradient-28" x1="-1386.47" y1="2703.18" x2="-1385.47" y2="2703.18" gradientTransform="translate(16851.47 33000.06) scale(12.14 -12.14)" xlink:href="#linear-gradient-20"></linearGradient><mask id="mask-8" x="0" y="0" width="384" height="384" maskUnits="userSpaceOnUse"><rect class="cls-64" width="384" height="384"></rect></mask><linearGradient id="linear-gradient-29" x1="-1386.47" y1="2689.84" x2="-1385.47" y2="2689.84" gradientTransform="translate(16851.46 33000.05) scale(12.14 -12.14)" xlink:href="#linear-gradient-21"></linearGradient><linearGradient id="linear-gradient-30" x1="-1460.67" y1="2706.52" x2="-1459.67" y2="2706.52" gradientTransform="translate(473999.17 878432.17) scale(324.49 -324.49)" xlink:href="#linear-gradient-20"></linearGradient><mask id="mask-9" x="0" y="0" width="384" height="384" maskUnits="userSpaceOnUse"><rect class="cls-67" width="384" height="384"></rect></mask><linearGradient id="linear-gradient-31" x1="-1460.67" y1="2706.63" x2="-1459.67" y2="2706.63" gradientTransform="translate(473999.7 878433.16) scale(324.49 -324.49)" xlink:href="#linear-gradient-21"></linearGradient></defs><g class="cls-21"><g id="Layer_2"><g id="Layer_1-2" data-name="Layer_1"><g class="cls-97"><g class="cls-42"><rect class="cls-20" x="-79.53" y="-79.53" width="543.06" height="543.06" transform="translate(-79.53 192) rotate(-45)"></rect></g><polyline class="cls-2" points="35.82 150.01 26.51 140.7 26.51 138.92"></polyline><polyline class="cls-2" points="24.4 348.18 15.09 357.49 13.32 357.49"></polyline><polyline class="cls-2" points="35.82 359.6 26.51 368.91 26.51 370.69"></polyline><polyline class="cls-2" points="359.6 348.18 368.91 357.49 370.68 357.49"></polyline><polyline class="cls-2" points="13.31 152.12 15.09 152.12 24.4 161.43"></polyline><polyline class="cls-2" points="359.6 161.43 368.91 152.12 370.68 152.12"></polyline><polyline class="cls-2" points="357.49 370.69 357.49 368.91 348.18 359.6"></polyline><polyline class="cls-2" points="357.49 138.92 357.49 140.7 348.18 150.01"></polyline><polygon class="cls-2" points="368.91 152.12 368.93 151.22 368.86 149.79 368.72 148.73 368.43 147.5 368.04 146.37 367.54 145.35 367.47 145.24 366.85 144.31 366.13 143.49 365.3 142.76 364.37 142.14 364.27 142.08 363.24 141.57 362.11 141.18 360.88 140.89 359.82 140.75 358.38 140.68 357.49 140.7 26.51 140.7 25.62 140.68 24.18 140.75 23.12 140.89 21.89 141.17 20.76 141.57 19.74 142.07 19.63 142.13 18.7 142.76 17.88 143.48 17.16 144.3 16.53 145.23 16.47 145.34 15.97 146.36 15.57 147.49 15.28 148.73 15.14 149.78 15.07 151.22 15.09 152.12 15.09 357.49 15.07 358.38 15.14 359.82 15.28 360.87 15.57 362.11 15.96 363.24 16.46 364.26 16.52 364.37 17.15 365.3 17.87 366.12 18.69 366.84 19.62 367.47 19.73 367.53 20.76 368.03 21.88 368.43 23.12 368.72 24.18 368.86 25.61 368.93 26.51 368.91 357.49 368.91 358.38 368.93 359.82 368.86 360.87 368.72 362.11 368.43 363.24 368.04 364.26 367.54 364.37 367.47 365.3 366.85 366.12 366.13 366.84 365.31 367.47 364.37 367.53 364.27 368.03 363.24 368.43 362.11 368.72 360.88 368.86 359.82 368.93 358.39 368.91 357.49 368.91 152.12"></polygon><g class="cls-45"><rect class="cls-19" x="-.61" y="62.2" width="385.22" height="385.22" transform="translate(-123.94 210.39) rotate(-45)"></rect></g><path class="cls-7" d="M324.78,223.04c0-1.49-1.2-2.69-2.69-2.69s-2.69,1.21-2.69,2.69,1.21,2.69,2.69,2.69,2.69-1.2,2.69-2.69"></path><g class="cls-11"><g class="cls-43"><path class="cls-7" d="M163.57,199.33c-3.45,0-6.24,2.8-6.24,6.24s2.8,6.25,6.24,6.25,6.24-2.8,6.24-6.25-2.8-6.24-6.24-6.24M163.57,210.03c-2.46,0-4.46-2-4.46-4.46s2-4.46,4.46-4.46,4.46,2,4.46,4.46-2,4.46-4.46,4.46M182.09,204.64l-1.15-.31c-1.26-.36-1.82-.84-1.82-1.66,0-.89.65-1.58,1.94-1.58s1.95.63,2.19,1.48h1.89c0-1.43-.68-2.22-1.48-2.67,0,0-.01,0-.02-.01-.35-.2-.73-.33-1.07-.41,0,0-.02,0-.03,0-.76-.17-1.38-.14-1.38-.14h0c-2.45,0-4.11,1.31-4.11,3.47,0,1.82,1.1,2.95,3.28,3.5l.97.24c1.35.37,1.97.87,1.97,1.81,0,1.06-.89,1.71-2.13,1.71-1.35,0-2.21-.66-2.55-1.58h-1.82c0,3.55,4.34,3.34,4.34,3.34h0c2.48,0,4.24-1.36,4.24-3.52,0-1.94-1.15-3.1-3.24-3.66M146.93,204.64l-1.15-.31c-1.26-.36-1.82-.84-1.82-1.66,0-.89.65-1.58,1.94-1.58s1.95.63,2.19,1.48h1.89c0-1.43-.68-2.22-1.48-2.67,0,0-.01,0-.02-.01-.35-.2-.73-.32-1.07-.41,0,0-.02,0-.03,0-.76-.17-1.38-.14-1.38-.14-2.45,0-4.11,1.31-4.11,3.47,0,1.82,1.1,2.95,3.28,3.5l.97.24c1.35.37,1.97.87,1.97,1.81,0,1.06-.89,1.71-2.13,1.71-1.36,0-2.21-.66-2.55-1.58h-1.82c0,3.55,4.33,3.34,4.34,3.34h0c2.49,0,4.24-1.36,4.24-3.52,0-1.94-1.15-3.1-3.24-3.66M94.19,204.64l-1.15-.31c-1.26-.36-1.82-.84-1.82-1.66,0-.89.65-1.58,1.94-1.58s1.95.63,2.19,1.48h1.89c0-1.43-.68-2.22-1.48-2.67,0,0-.01,0-.02-.01-.35-.2-.72-.33-1.07-.41,0,0-.02,0-.03,0-.76-.17-1.38-.14-1.38-.14-2.45,0-4.11,1.31-4.11,3.47,0,1.82,1.1,2.95,3.28,3.5l.97.24c1.35.37,1.97.87,1.97,1.81,0,1.06-.89,1.71-2.13,1.71-1.35,0-2.21-.66-2.55-1.58h-1.82c0,3.55,4.34,3.34,4.34,3.34h0c2.48,0,4.24-1.36,4.24-3.52,0-1.94-1.15-3.1-3.24-3.66M131.26,208.11l-5.73-8.58h-1.99v12.1h1.99v-8.46l5.73,8.46h1.99v-12.1h-1.99v8.58ZM107.2,211.62h7.23v-1.81h-5.08v-3.53h4.57v-1.74h-4.57v-3.21h5.08v-1.81h-7.23v12.1ZM67.14,186.5l-19.08,11.01v11.08l8.82,5.11v10.95l19.08-11.01v-11.04l-8.82-5.11v-10.99ZM49.49,199.17l6.67,3.86-6.67,3.85v-7.71ZM56.89,212.04l-6.73-3.9,6.73-3.89v7.78ZM50.2,197.93l15.51-8.95v8.54l-8.12,4.69-7.39-4.28ZM65.71,199.17v8.54l-7.39,4.27v-8.54l7.39-4.27ZM58.32,222.17v-8.54l8.09-4.67,7.39,4.28-15.48,8.94ZM74.53,212.01l-6.7-3.88,6.7-3.87v7.74ZM73.84,203.02l-6.7,3.87v-7.75l6.7,3.88ZM189.78,200.14h.92v2.91h.71v-2.91h.92v-.66h-2.55v.66ZM196.07,199.48l-.91,2.09-.91-2.09h-.77v3.57h.67v-2.38l.77,1.81h.51l.77-1.81v2.38h.67v-3.57h-.77Z"></path><path class="cls-7" d="M299.85,300.69v-2.61l5.22-5.42v-1.37s-6.36,6.59-6.36,6.59h-.29l.06-.7.28.04c.6,0,1.09-.51,1.09-1.13s-.48-1.13-1.1-1.13h0l-.21.02c-.14.03-.27.09-.42.19l-.11.09c-.27-.3-.66-.55-1.15-.75-.18-.07-.38-.14-.62-.2l-.18-.05-.87-.16c-.06,0-.11-.02-.17-.02v-.32h-3.7v.23c-.12,0-.24.02-.35.03h-.08c-.37.04-.74.09-1.09.16v-.06h-1.57v.53c-.08.04-.15.07-.22.11l-.43.27-.33.31-.23.33-.13.3h-.87v1.06h.98l.14,1.59-6.83-7.34v1.38l6.96,7.5.76,8.78-7.41,7.67.73.65,6.79-7.04.26,3.02c.02.18.11.34.26.42v1.09h1.63v-1.02h4.66l.11.16h0c.37.49.94.8,1.57.85h.17s.2,0,.2,0l.43-.08.4-.17.34-.22.26-.24c.13-.15.24-.3.32-.46l.2-.54.04-.25,4.19,4.51.69-.7-5.15-5.53-1.25-1.33.74-9.03h1.65ZM298.9,299.08v.63h-.6l.6-.63ZM289.79,295.22c.07-.01.14-.03.2-.04l.53-.09c.26-.03.52-.05.79-.07v.64h3.69v-.54l.46.07c.27.05.49.1.69.16.14.04.27.08.39.13.36.15.62.31.78.5h-7.54v-.76ZM288.22,295.81v.17h-.21l.21-.17ZM288.35,301.32l3.45,3.72-2.88,2.99-.57-6.7ZM294.84,311.54l-.15.36-.1.65c0,.07,0,.13,0,.19h-5.28l-.29-3.43,3.43-3.56,4,4.31-.03.32-.36.09c-.12.04-.24.09-.37.17l-.14.09-.49.45-.24.36ZM296.57,308.76l-3.44-3.7,4.09-4.24-.65,7.94ZM297.45,297.88h-.29v1.61l-1.29,1.34v-.49h-4.64v1.71h3.45l-2.22,2.3-4.26-4.57-.24-2.74h9.54l-.07.84Z"></path><path class="cls-7" d="M330.8,300.69v-2.61l5.22-5.42v-1.37s-6.36,6.59-6.36,6.59h-.29l.06-.7.28.04c.6,0,1.09-.51,1.09-1.13s-.48-1.13-1.1-1.13h0l-.21.02c-.14.03-.27.09-.42.19l-.11.09c-.27-.3-.66-.55-1.15-.75-.18-.07-.38-.14-.62-.2l-.18-.05-.87-.16c-.06,0-.11-.02-.17-.02v-.32h-3.7v.23c-.12,0-.24.02-.35.03h-.08c-.37.04-.74.09-1.09.16v-.06h-1.57v.53c-.08.04-.15.07-.22.11l-.43.27-.33.31-.23.33-.13.3h-.87v1.06h.98l.14,1.59-6.83-7.34v1.38l6.96,7.5.76,8.78-7.41,7.67.73.65,6.79-7.04.26,3.02c.02.18.11.34.26.42v1.09h1.63v-1.02h4.66l.11.16h0c.37.49.94.8,1.57.85h.17s.2,0,.2,0l.43-.08.4-.17.34-.22.26-.24c.13-.15.24-.3.32-.46l.2-.54.04-.25,4.19,4.51.69-.7-5.15-5.53-1.25-1.33.74-9.03h1.65ZM329.85,299.08v.63h-.6l.6-.63ZM320.74,295.22c.07-.01.14-.03.2-.04l.53-.09c.26-.03.52-.05.79-.07v.64h3.69v-.54l.46.07c.27.05.49.1.69.16.14.04.27.08.39.13.36.15.62.31.78.5h-7.54v-.76ZM319.17,295.81v.17h-.21l.21-.17ZM319.3,301.32l3.45,3.72-2.88,2.99-.57-6.7ZM325.79,311.54l-.15.36-.1.65c0,.07,0,.13,0,.19h-5.28l-.29-3.43,3.43-3.56,4,4.31-.03.32-.36.09c-.12.04-.24.09-.37.17l-.14.09-.49.45-.24.36ZM327.52,308.76l-3.44-3.7,4.09-4.24-.65,7.94ZM328.4,297.88h-.29v1.61l-1.29,1.34v-.49h-4.64v1.71h3.45l-2.22,2.3-4.26-4.57-.24-2.74h9.54l-.07.84Z"></path><rect class="cls-7" x="282.41" y="321.9" width="20.58" height="5.42"></rect><path class="cls-7" d="M321.14,334.83c.32,0,.7.1,1.01.14v-3.09c-.32-.03-.73-.05-1.08-.05-5.47,0-9.95,4.44-9.95,9.91s4.31,9.93,9.89,9.93c.34,0,.74-.04,1.08-.07v-3c-.31.04-.62.06-.94.06-3.33,0-6.1-2.29-6.76-5.42h5.72v-2.99h-5.7c.68-3.1,3.45-5.42,6.75-5.42M304.32,334.83c.32,0,.64.02.95.06v-3.01c-.34-.03-.72-.07-1.06-.07-5.47,0-9.87,4.46-9.87,9.93s4.44,9.91,9.91,9.91c.34,0,.68-.01,1.01-.05v-3c-.3.04-.62.06-.94.06-3.82,0-6.91-3.09-6.91-6.91s3.1-6.91,6.91-6.91"></path><path class="cls-7" d="M255.89,293.28v-1.75h-3.41v3.41h1.75v-1.67h1.67ZM269.55,291.53h-10.24v11.99h11.99v-11.99h-1.74ZM269.55,294.95v6.83h-8.5v-8.5h8.5v1.67ZM250.81,293.28h-1.74v1.67h1.74v-1.67ZM257.64,293.28h-1.74v1.67h1.74v-1.67ZM254.22,296.69h1.67v-1.75h-1.67v1.75ZM264.47,294.95h-1.75v5.16h5.16v-5.16h-3.41ZM242.23,300.11h1.75v-5.16h-5.16v5.16h3.41ZM252.48,300.11h1.75v-1.74h-1.75v-1.67h-1.67v1.67h-1.74v1.74h3.41ZM238.82,303.52h8.58v-11.99h-11.99v11.99h3.41ZM237.15,300.11v-6.83h8.5v8.5h-8.5v-1.67ZM249.06,303.52h1.74v-1.75h-1.74v1.75ZM235.41,306.94h1.74v-1.74h-1.74v1.74ZM240.57,305.19h-1.75v1.74h-1.67v1.67h3.41v-3.41ZM245.65,306.94h1.75v-1.74h-1.75v1.74ZM255.89,305.19h1.74v-8.5h-1.74v6.83h-1.67v-1.75h-1.75v1.75h-1.67v1.67h3.41v1.74h1.67v-1.74ZM264.47,305.19h-1.75v1.74h1.75v-1.74ZM269.55,305.19h-1.67v1.74h1.67v-1.74ZM243.98,306.94v-1.74h-1.75v3.41h-1.67v1.74h3.41v-3.41ZM250.81,308.6h1.67v1.74h1.75v-3.41h-6.83v1.67h3.41ZM261.05,306.94h-1.75v1.67h3.41v-1.67h-1.67ZM267.88,306.94h-3.41v1.67h1.67v1.74h3.41v-1.74h-1.67v-1.67ZM269.55,308.6h1.74v-1.67h-1.74v1.67ZM245.65,310.35h1.75v-1.75h-1.75v1.75ZM255.89,310.35h1.74v-1.75h-1.74v1.75ZM264.47,308.6h-1.75v1.75h1.75v-1.75ZM237.15,310.35v1.67h-1.75v1.75h3.41v-1.75h1.75v-1.67h-3.41ZM243.98,312.02v1.75h3.42v-1.75h-1.75v-1.67h-1.67v1.67ZM249.06,312.02h1.74v-1.67h-1.74v1.67ZM261.05,310.35h-1.75v3.42h1.75v-1.75h1.67v-1.67h-1.67ZM264.47,312.02h1.67v-1.67h-1.67v1.67ZM257.64,312.02h-1.74v1.75h1.74v-1.75ZM262.72,313.77v3.41h1.75v-5.16h-1.75v1.75ZM267.88,312.02v1.75h3.41v-1.75h-3.41ZM257.64,315.43v1.74h-1.74v-3.41h-1.67v-1.75h-3.41v1.75h-1.74v1.67h1.74v3.41h-1.74v1.75h1.74v1.67h-1.74v1.74h3.41v1.67h1.75v-5.08h1.67v-1.75h1.74v1.75h1.67v1.67h5.16v-3.42h-5.16v-1.67h1.75v-1.74h-1.75v-1.67h-1.67v1.67ZM254.22,317.18v1.67h-1.75v-3.41h1.75v1.74ZM243.98,315.43h-8.57v11.99h11.99v-11.99h-3.42ZM245.65,318.85v6.83h-8.5v-8.5h8.5v1.67ZM267.88,315.43h-1.74v1.74h3.41v-1.74h-1.67ZM269.55,318.85v1.75h1.74v-3.41h-1.74v1.67ZM240.57,318.85h-1.75v5.16h5.16v-5.16h-3.41ZM267.88,322.26h1.67v-1.67h-1.67v1.67ZM255.89,324.01h1.74v-1.74h-1.74v1.74ZM266.14,324.01v3.41h1.74v-5.16h-1.74v1.74ZM271.29,322.26h-1.74v1.74h1.74v-1.74ZM259.31,325.68v1.75h1.75v-3.41h-1.75v1.67ZM249.06,325.68v1.75h3.41v-1.75h-3.41ZM255.89,327.42h1.74v-1.75h-1.74v1.75ZM269.55,327.42h1.74v-1.75h-1.74v1.75Z"></path><path class="cls-8" d="M48.27,327.12h2.14v-35.88h-2.14v35.88ZM51.93,327.12h.8v-35.88h-.8v35.88ZM55.41,327.12h3.3v-35.88h-3.3v35.88ZM61.39,327.12h4.46v-35.88h-4.46v35.88ZM67.37,327.12h.89v-35.88h-.89v35.88ZM69.69,327.12h3.3v-35.88h-3.3v35.88ZM74.5,327.12h.89v-35.88h-.89v35.88ZM79.23,327.12h.89v-35.88h-.89v35.88ZM83.96,327.12h2.14v-35.88h-2.14v35.88ZM87.53,327.12h.89v-35.88h-.89v35.88ZM89.94,327.12h3.3v-35.88h-3.3v35.88ZM95.92,327.12h2.05v-35.88h-2.05v35.88ZM100.65,327.12h2.05v-35.88h-2.05v35.88ZM104.21,327.12h3.3v-35.88h-3.3v35.88ZM110.19,327.12h.89v-35.88h-.89v35.88ZM113.76,327.12h2.05v-35.88h-2.05v35.88ZM118.49,327.12h.89v-35.88h-.89v35.88ZM123.22,327.12h.89v-35.88h-.89v35.88ZM126.78,327.12h.89v-35.88h-.89v35.88ZM131.6,327.12h2.05v-35.88h-2.05v35.88ZM136.33,327.12h.89v-35.88h-.89v35.88ZM139.9,327.12h.89v-35.88h-.89v35.88ZM143.47,327.12h2.05v-35.88h-2.05v35.88ZM148.2,327.12h.89v-35.88h-.89v35.88ZM153.02,327.12h3.21v-35.88h-3.21v35.88ZM160.15,327.12h2.05v-35.88h-2.05v35.88ZM163.72,327.12h.89v-35.88h-.89v35.88ZM166.04,327.12h.89v-35.88h-.89v35.88ZM168.45,327.12h4.46v-35.88h-4.46v35.88ZM174.43,327.12h3.21v-35.88h-3.21v35.88ZM179.16,327.12h2.05v-35.88h-2.05v35.88ZM182.72,327.12h3.3v-35.88h-3.3v35.88ZM188.71,327.12h.89v-35.88h-.89v35.88ZM192.27,327.12h.89v-35.88h-.89v35.88ZM198.16,327.12h.89v-35.88h-.89v35.88ZM201.73,327.12h2.14v-35.88h-2.14v35.88ZM205.3,327.12h2.14v-35.88h-2.14v35.88ZM211.27,327.12h3.3v-35.88h-3.3v35.88ZM216,327.12h.89v-35.88h-.89v35.88ZM218.41,327.12h2.05v-35.88h-2.05v35.88Z"></path><path class="cls-8" d="M309.7,132.16c5.65-6.36,1.53-11.48-.3-13.24-.01-.02-.07-.07-.13-.13l.9-1.11-5.47-1.97,2.94,5.09.79-.98s.02.03.03.04c1.93,1.95,5.14,6.42.07,11.63l-.89-1.1-2.94,5.09,5.47-1.97-.81-1c.12-.13.28-.31.34-.37"></path><text class="cls-4" transform="translate(222.23 189.94) scale(1 1.09)"><tspan x="0" y="0">P</tspan><tspan class="cls-78" x="4.58" y="0">r</tspan><tspan class="cls-51" x="7.34" y="0">o</tspan><tspan class="cls-98" x="11.78" y="0">d</tspan><tspan class="cls-51" x="16.47" y="0">uct in</tspan><tspan class="cls-80" x="35.8" y="0">f</tspan><tspan x="38.5" y="0">ormation:</tspan></text><text class="cls-6" transform="translate(286.97 113.12) scale(1 1.09)"><tspan class="cls-85" x="0" y="0">F</tspan><tspan x="4.53" y="0">OLD HERE</tspan></text><text class="cls-4" transform="translate(47.52 266.2) scale(1 1.09)"><tspan class="cls-84" x="0" y="0">P</tspan><tspan x="4.51" y="0">a</tspan><tspan class="cls-100" x="9.08" y="0">r</tspan><tspan x="12.13" y="0">t number: SLS-2000-00-B-10</tspan></text><text class="cls-4" transform="translate(47.52 346.6) scale(1 1.09)"><tspan x="0" y="0">User Manual: https:</tspan><tspan class="cls-76" x="67" y="0">/</tspan><tspan x="70.36" y="0">/</tspan><tspan class="cls-84" x="74.38" y="0">l</tspan><tspan x="76.13" y="0">abel.sensos.i</tspan><tspan class="cls-82" x="119.94" y="0">o</tspan><tspan x="124.02" y="0">/manual</tspan></text><text class="cls-4" transform="translate(47.52 275.61) scale(1 1.09)"><tspan class="cls-81" x="0" y="0">L</tspan><tspan x="4.19" y="0">ot number: C01C35</tspan></text><text class="cls-4" transform="translate(47.52 285.03) scale(1 1.09)"><tspan x="0" y="0">IMEI 3515892551</tspan><tspan class="cls-81" x="59.16" y="0">7</tspan><tspan x="62.94" y="0">8391</tspan></text><text class="cls-4" transform="translate(222.23 199.36) scale(1 1.09)"><tspan x="0" y="0">Model name: Gen 2.0</tspan></text><text class="cls-5" transform="translate(222.23 208.77) scale(1 1.11)"><tspan class="cls-89" x="0" y="0">M</tspan><tspan class="cls-94" x="6.27" y="0">a</tspan><tspan class="cls-91" x="10.91" y="0">n</tspan><tspan class="cls-117" x="15.26" y="0">u</tspan><tspan class="cls-103" x="19.61" y="0">f</tspan><tspan class="cls-111" x="22.48" y="0">a</tspan><tspan class="cls-108" x="27.13" y="0">c</tspan><tspan class="cls-101" x="31.18" y="0">t</tspan><tspan class="cls-86" x="34.03" y="0">u</tspan><tspan class="cls-102" x="38.46" y="0">r</tspan><tspan class="cls-111" x="41.4" y="0">e</tspan><tspan x="45.72" y="0">d </tspan><tspan class="cls-119" x="52.18" y="0">b</tspan><tspan class="cls-109" x="56.68" y="0">y</tspan><tspan x="61.06" y="0">: </tspan><tspan class="cls-94" x="64.64" y="0">S</tspan><tspan class="cls-111" x="69.21" y="0">e</tspan><tspan class="cls-99" x="73.54" y="0">n</tspan><tspan class="cls-92" x="77.88" y="0">s</tspan><tspan class="cls-104" x="81.41" y="0">o</tspan><tspan class="cls-86" x="85.87" y="0">s</tspan><tspan class="cls-115" x="89.4" y="0">L</tspan><tspan class="cls-86" x="93.67" y="0">a</tspan><tspan class="cls-53" x="98.3" y="0">b</tspan><tspan class="cls-112" x="102.77" y="0">z</tspan><tspan class="cls-111" x="106.39" y="0">.</tspan><tspan class="cls-104" x="108.19" y="0">i</tspan><tspan x="110.26" y="0">o </tspan><tspan class="cls-79" x="116.59" y="0">L</tspan><tspan class="cls-96" x="120.66" y="0">t</tspan><tspan x="123.5" y="0">d</tspan></text><text class="cls-5" transform="translate(222.23 218.19) scale(1 1.11)"><tspan class="cls-116" x="0" y="0">I</tspan><tspan class="cls-90" x="3.41" y="0">n</tspan><tspan class="cls-95" x="7.78" y="0">c</tspan><tspan class="cls-92" x="11.72" y="0">l</tspan><tspan class="cls-110" x="13.64" y="0">u</tspan><tspan class="cls-88" x="18.1" y="0">d</tspan><tspan class="cls-101" x="22.75" y="0">e</tspan><tspan x="27.03" y="0">s </tspan><tspan class="cls-77" x="32.39" y="0">L</tspan><tspan class="cls-118" x="36.19" y="0">T</tspan><tspan x="40.34" y="0">E </tspan><tspan class="cls-87" x="46.65" y="0">mo</tspan><tspan class="cls-86" x="57.86" y="0">du</tspan><tspan class="cls-90" x="66.92" y="0">l</tspan><tspan x="68.86" y="0">e</tspan></text><text class="cls-5" transform="translate(222.23 227.61) scale(1 1.11)"><tspan class="cls-113" x="0" y="0">FC</tspan><tspan class="cls-52" x="9.15" y="0">C </tspan><tspan class="cls-120" x="15.92" y="0">I</tspan><tspan class="cls-107" x="19.36" y="0">D</tspan><tspan x="24.87" y="0">: </tspan><tspan class="cls-105" x="28.45" y="0">H</tspan><tspan class="cls-99" x="33.93" y="0">S</tspan><tspan x="38.47" y="0">W</tspan><tspan class="cls-83" x="45.51" y="0">-</tspan><tspan class="cls-106" x="48.06" y="0">T</tspan><tspan class="cls-114" x="52.49" y="0">Y</tspan><tspan class="cls-93" x="57.19" y="0">1S</tspan><tspan class="cls-103" x="65.41" y="0">C</tspan><tspan class="cls-94" x="70.3" y="0">D</tspan><tspan x="75.75" y="0">M</tspan></text></g></g><g class="cls-44"><rect class="cls-18" x="265.19" y="15.41" width="86.9" height="86.9" transform="translate(48.78 235.48) rotate(-45)"></rect></g><g class="cls-50"><rect class="cls-17" x="275.27" y="168.45" width="172.71" height="172.71" transform="translate(-74.26 330.34) rotate(-45)"></rect></g><g class="cls-10"><g class="cls-47"><g class="cls-46"><g class="cls-3"><rect class="cls-15" x="352.56" y="141.74" width="18.12" height="226.13"></rect></g></g></g></g><g class="cls-49"><rect class="cls-13" x="64.58" y="237.38" width="254.86" height="254.86" transform="translate(-201.72 242.62) rotate(-45)"></rect></g><g class="cls-10"><g class="cls-48"><g class="cls-36"><g class="cls-28"><rect class="cls-16" x="17.67" y="358.93" width="348.67" height="11.75"></rect></g></g></g></g><g class="cls-33"><rect class="cls-54" x="64.58" y="17.37" width="254.86" height="254.86" transform="translate(-46.15 178.18) rotate(-45)"></rect></g><g class="cls-40"><rect class="cls-55" x="-63.99" y="168.43" width="172.74" height="172.74" transform="translate(-173.62 90.46) rotate(-45)"></rect></g><g class="cls-38"><rect class="cls-56" x="305.26" y="29.43" width="58.88" height="58.88" transform="translate(56.41 253.91) rotate(-45)"></rect></g><g class="cls-9"><g class="cls-39"><g class="cls-37"><g class="cls-22"><rect class="cls-59" x="332.6" y="19.34" width="4.21" height="79.05"></rect></g></g></g></g><g class="cls-34"><rect class="cls-68" x="287.38" y="75.78" width="42.52" height="42.52" transform="translate(21.78 246.67) rotate(-45)"></rect></g><g class="cls-9"><g class="cls-31"><g class="cls-35"><g class="cls-23"><rect class="cls-70" x="281.66" y="93.96" width="53.97" height="6.17"></rect></g></g></g></g><g class="cls-32"><rect class="cls-71" x="253.13" y="29.41" width="58.88" height="58.88" transform="translate(41.15 217.04) rotate(-45)"></rect></g><g class="cls-41"><rect class="cls-58" x="287.36" y="-.59" width="42.54" height="42.54" transform="translate(75.78 224.29) rotate(-45)"></rect></g><path class="cls-7" d="M347.26,165.99c0-1.49-1.21-2.69-2.69-2.69s-2.69,1.21-2.69,2.69,1.2,2.69,2.69,2.69,2.69-1.21,2.69-2.69"></path><g class="cls-24"><polygon class="cls-60" points="280.46 22.64 280.52 21.85 280.69 21.07 280.83 20.69 281.18 19.98 281.64 19.32 281.91 19.03 282.52 18.52 283.21 18.11 283.57 17.95 284.33 17.72 285.12 17.6 285.52 17.58 285.52 17.58 285.52 17.58 285.12 17.6 284.33 17.72 283.57 17.95 283.21 18.11 282.52 18.52 281.91 19.03 281.64 19.32 281.18 19.98 280.83 20.69 280.69 21.07 280.52 21.85 280.46 22.64 280.46 22.64 280.46 22.64"></polygon></g><g class="cls-25"><polygon class="cls-63" points="284.46 24.96 284.5 24.43 284.62 23.91 284.7 23.66 284.94 23.18 285.25 22.74 285.43 22.55 285.83 22.21 286.29 21.93 286.53 21.83 287.04 21.67 287.57 21.59 287.84 21.58 287.84 21.58 287.84 21.58 287.57 21.59 287.04 21.67 286.53 21.83 286.29 21.93 285.83 22.21 285.43 22.55 285.25 22.74 284.94 23.18 284.7 23.66 284.62 23.91 284.5 24.43 284.46 24.96 284.46 24.96 284.46 24.96"></polygon></g><g class="cls-27"><polygon class="cls-65" points="26.51 370.69 25.4 370.65 23.88 370.5 22.64 370.26 21.31 369.88 21.28 369.87 20.05 369.37 18.92 368.77 18.8 368.7 17.77 367.97 16.85 367.15 16.02 366.22 15.3 365.19 15.22 365.07 14.62 363.94 14.13 362.71 14.12 362.68 13.74 361.35 13.5 360.12 13.35 358.6 13.31 357.49 13.31 357.49 13.31 357.49 13.35 358.6 13.5 360.12 13.74 361.35 14.12 362.68 14.13 362.71 14.62 363.94 15.22 365.07 15.3 365.19 16.02 366.22 16.85 367.15 17.77 367.97 18.8 368.7 18.92 368.77 20.05 369.37 21.28 369.87 21.31 369.88 22.64 370.26 23.88 370.5 25.4 370.65 26.51 370.69 26.51 370.69 26.51 370.69"></polygon></g><g class="cls-26"><polygon class="cls-72" points="13.31 152.12 13.35 151.01 13.5 149.49 13.74 148.25 14.12 146.92 14.13 146.89 14.63 145.66 15.23 144.53 15.3 144.41 16.03 143.38 16.85 142.45 17.78 141.63 18.81 140.91 18.93 140.83 20.06 140.23 21.29 139.74 21.32 139.72 22.65 139.34 23.88 139.11 25.4 138.96 26.51 138.92 357.49 138.92 357.49 138.92 357.49 138.92 26.51 138.92 25.4 138.96 23.88 139.11 22.65 139.34 21.32 139.72 21.29 139.74 20.06 140.23 18.93 140.83 18.81 140.91 17.78 141.63 16.85 142.45 16.03 143.38 15.3 144.41 15.23 144.53 14.63 145.66 14.13 146.89 14.12 146.92 13.74 148.25 13.5 149.49 13.35 151.01 13.31 152.12 13.31 152.12 13.31 152.12"></polygon></g><g class="cls-30"><polygon class="cls-75" points="35.82 359.6 35.35 359.59 33.91 359.48 32.56 359.25 31.33 358.9 30.31 358.5 29.26 357.94 28.32 357.3 27.46 356.54 26.7 355.67 26.06 354.74 25.5 353.69 25.1 352.67 24.75 351.43 24.52 350.09 24.41 348.65 24.4 348.18 24.4 348.18 24.4 348.18 24.41 348.65 24.52 350.09 24.75 351.43 25.1 352.67 25.5 353.69 26.06 354.74 26.7 355.67 27.46 356.54 28.32 357.3 29.26 357.94 30.31 358.5 31.33 358.9 32.56 359.25 33.91 359.48 35.35 359.59 35.82 359.6 35.82 359.6 35.82 359.6"></polygon></g><g class="cls-29"><path class="cls-66" d="M24.4,161.43s0,0,0,0c0-.06,0-.46,0-.46l.11-1.44.23-1.34.35-1.24.4-1.02.56-1.05.64-.93.76-.86.86-.76.93-.64,1.05-.56,1.02-.4,1.24-.35,1.34-.23,1.44-.11h.47s312.35,0,312.35,0H35.35s-1.44.11-1.44.11l-1.34.23-1.24.35-1.02.4-1.05.56-.93.64-.86.76-.76.86-.64.93-.56,1.05-.4,1.02-.35,1.24-.23,1.34-.11,1.44s0,.4,0,.46c0,0,0,0,0,0h0Z"></path></g></g></g></g></g></svg> 