<?xml version="1.0" encoding="UTF-8"?> <svg xmlns="http://www.w3.org/2000/svg" xmlns:xlink="http://www.w3.org/1999/xlink" id="Layer_1" viewBox="0 0 840 428"><defs><style> .cls-1, .cls-2, .cls-3, .cls-4, .cls-5, .cls-6, .cls-7, .cls-8, .cls-9 { fill: none; } .cls-10 { fill: url(#linear-gradient-13); } .cls-10, .cls-11 { opacity: .1; } .cls-10, .cls-11, .cls-12, .cls-13, .cls-14, .cls-15, .cls-16, .cls-17, .cls-18, .cls-19, .cls-20, .cls-21, .cls-22, .cls-23, .cls-24, .cls-25, .cls-26, .cls-27, .cls-28, .cls-29, .cls-30, .cls-31, .cls-32, .cls-33, .cls-34, .cls-35, .cls-36, .cls-37 { isolation: isolate; } .cls-10, .cls-11, .cls-38, .cls-35, .cls-36 { mix-blend-mode: multiply; } .cls-11 { fill: url(#linear-gradient-11); } .cls-12 { letter-spacing: 0em; } .cls-12, .cls-13, .cls-14, .cls-15, .cls-16, .cls-17, .cls-18, .cls-19, .cls-20, .cls-21, .cls-22, .cls-23, .cls-24, .cls-25, .cls-26, .cls-27, .cls-28, .cls-29, .cls-30, .cls-31, .cls-39, .cls-40, .cls-33, .cls-34, .cls-37 { fill: #121420; } .cls-12, .cls-13, .cls-14, .cls-15, .cls-16, .cls-17, .cls-18, .cls-19, .cls-20, .cls-21, .cls-22, .cls-23, .cls-24, .cls-25, .cls-26, .cls-27, .cls-28, .cls-29, .cls-30, .cls-31, .cls-33, .cls-34 { font-size: 6.2px; } .cls-12, .cls-13, .cls-14, .cls-15, .cls-16, .cls-17, .cls-18, .cls-19, .cls-20, .cls-21, .cls-22, .cls-23, .cls-24, .cls-25, .cls-26, .cls-27, .cls-28, .cls-29, .cls-30, .cls-31, .cls-33, .cls-34, .cls-37 { font-family: ArialMT, Arial; } .cls-13 { letter-spacing: .04em; } .cls-14 { letter-spacing: .03em; } .cls-15 { letter-spacing: .03em; } .cls-16 { letter-spacing: .03em; } .cls-17 { letter-spacing: .02em; } .cls-18 { letter-spacing: .02em; } .cls-19 { letter-spacing: .02em; } .cls-20 { letter-spacing: .02em; } .cls-21 { letter-spacing: 0em; } .cls-41 { fill: url(#linear-gradient-8); } .cls-42 { fill: url(#linear-gradient-6); } .cls-43 { fill: url(#linear-gradient-9); } .cls-44 { fill: url(#linear-gradient-4); } .cls-45 { fill: url(#linear-gradient-3); } .cls-46 { fill: url(#linear-gradient-2); } .cls-38 { opacity: .7; } .cls-23 { letter-spacing: -.06em; } .cls-24 { letter-spacing: -.06em; } .cls-25 { letter-spacing: -.04em; } .cls-26 { letter-spacing: -.03em; } .cls-27 { letter-spacing: -.03em; } .cls-28 { letter-spacing: -.02em; } .cls-29 { letter-spacing: -.02em; } .cls-30 { letter-spacing: -.02em; } .cls-31 { letter-spacing: -.05em; } .cls-47 { fill: url(#linear-gradient); } .cls-2 { stroke: #0ed28c; stroke-miterlimit: 10; } .cls-3 { stroke: #121420; stroke-miterlimit: 2; stroke-width: .28px; } .cls-48 { fill: url(#linear-gradient-10); } .cls-49 { fill: url(#linear-gradient-12); } .cls-50 { fill: url(#linear-gradient-14); } .cls-51 { fill: url(#linear-gradient-15); } .cls-4 { stroke: url(#linear-gradient-19); } .cls-4, .cls-5, .cls-6, .cls-7, .cls-8, .cls-9 { stroke-linecap: round; stroke-linejoin: round; stroke-width: .57px; } .cls-5 { stroke: url(#linear-gradient-18); } .cls-6 { stroke: url(#linear-gradient-17); } .cls-7 { stroke: url(#linear-gradient-16); } .cls-8 { stroke: url(#linear-gradient-20); } .cls-9 { stroke: url(#linear-gradient-21); } .cls-52 { fill: #0ed28c; } .cls-40 { fill-rule: evenodd; } .cls-33 { letter-spacing: -.1em; } .cls-34 { letter-spacing: -.09em; } .cls-35 { fill: url(#linear-gradient-5); } .cls-35, .cls-36 { opacity: .2; } .cls-36 { fill: url(#linear-gradient-7); } .cls-37 { font-size: 6.54px; } .cls-53 { clip-path: url(#clippath); } </style><linearGradient id="linear-gradient" x1="45.25" y1="246.02" x2="295.63" y2="-4.36" gradientUnits="userSpaceOnUse"><stop offset=".15" stop-color="#fff"></stop><stop offset=".45" stop-color="#efefef"></stop><stop offset=".7" stop-color="#fff"></stop><stop offset="1" stop-color="#efefef"></stop></linearGradient><linearGradient id="linear-gradient-2" x1="46.53" y1="207.19" x2="256.84" y2="-3.12" gradientUnits="userSpaceOnUse"><stop offset=".15" stop-color="#fff"></stop><stop offset=".45" stop-color="#efefef"></stop><stop offset=".7" stop-color="#fff"></stop><stop offset="1" stop-color="#efefef"></stop></linearGradient><linearGradient id="linear-gradient-3" x1="220.3" y1="280.32" x2="267.3" y2="233.3" gradientUnits="userSpaceOnUse"><stop offset=".15" stop-color="#fff"></stop><stop offset="1" stop-color="#efefef"></stop></linearGradient><linearGradient id="linear-gradient-4" x1="241.87" y1="147.67" x2="333.12" y2="56.41" gradientUnits="userSpaceOnUse"><stop offset=".15" stop-color="#efefef"></stop><stop offset=".45" stop-color="#eee"></stop><stop offset=".7" stop-color="#efefef"></stop><stop offset="1" stop-color="#eee"></stop></linearGradient><linearGradient id="linear-gradient-5" x1="285.65" y1="191.35" x2="285.65" y2="12.73" gradientUnits="userSpaceOnUse"><stop offset="0" stop-color="#000" stop-opacity="0"></stop><stop offset="1" stop-color="#000"></stop></linearGradient><linearGradient id="linear-gradient-6" x1="82.83" y1="81.58" x2="220.53" y2="-56.12" gradientUnits="userSpaceOnUse"><stop offset=".15" stop-color="#efefef"></stop><stop offset=".45" stop-color="#eee"></stop><stop offset=".7" stop-color="#efefef"></stop><stop offset="1" stop-color="#eee"></stop></linearGradient><linearGradient id="linear-gradient-7" x1="13.98" y1="15.15" x2="289.38" y2="15.15" gradientUnits="userSpaceOnUse"><stop offset="0" stop-color="#000" stop-opacity="0"></stop><stop offset="1" stop-color="#000"></stop></linearGradient><linearGradient id="linear-gradient-8" x1="82.83" y1="260.2" x2="220.53" y2="122.5" gradientUnits="userSpaceOnUse"><stop offset=".15" stop-color="#fff"></stop><stop offset=".45" stop-color="#efefef"></stop><stop offset=".7" stop-color="#fff"></stop><stop offset="1" stop-color="#efefef"></stop></linearGradient><linearGradient id="linear-gradient-9" x1="-29.78" y1="147.67" x2="61.49" y2="56.41" gradientUnits="userSpaceOnUse"><stop offset=".15" stop-color="#fff"></stop><stop offset=".45" stop-color="#efefef"></stop><stop offset=".7" stop-color="#fff"></stop><stop offset="1" stop-color="#efefef"></stop></linearGradient><linearGradient id="linear-gradient-10" x1="249.5" y1="272.41" x2="280.73" y2="241.19" gradientUnits="userSpaceOnUse"><stop offset=".15" stop-color="#efefef"></stop><stop offset=".45" stop-color="#eee"></stop><stop offset=".7" stop-color="#efefef"></stop><stop offset="1" stop-color="#eee"></stop></linearGradient><linearGradient id="linear-gradient-11" x1="264.39" y1="288.02" x2="264.39" y2="225.58" gradientUnits="userSpaceOnUse"><stop offset="0" stop-color="#000" stop-opacity="0"></stop><stop offset="1" stop-color="#000"></stop></linearGradient><linearGradient id="linear-gradient-12" x1="232.86" y1="237.07" x2="254.74" y2="215.19" gradientUnits="userSpaceOnUse"><stop offset=".15" stop-color="#efefef"></stop><stop offset=".45" stop-color="#eee"></stop><stop offset=".7" stop-color="#efefef"></stop><stop offset="1" stop-color="#eee"></stop></linearGradient><linearGradient id="linear-gradient-13" x1="222.49" y1="226.65" x2="265.12" y2="226.65" gradientUnits="userSpaceOnUse"><stop offset="0" stop-color="#000" stop-opacity="0"></stop><stop offset="1" stop-color="#000"></stop></linearGradient><linearGradient id="linear-gradient-14" x1="206.87" y1="272.43" x2="238.1" y2="241.2" gradientUnits="userSpaceOnUse"><stop offset=".15" stop-color="#fff"></stop><stop offset="1" stop-color="#efefef"></stop></linearGradient><linearGradient id="linear-gradient-15" x1="232.85" y1="298.44" x2="254.74" y2="276.55" gradientUnits="userSpaceOnUse"><stop offset=".15" stop-color="#fff"></stop><stop offset="1" stop-color="#efefef"></stop></linearGradient><linearGradient id="linear-gradient-16" x1="221.26" y1="287.41" x2="225.83" y2="287.41" gradientUnits="userSpaceOnUse"><stop offset="0" stop-color="#fff" stop-opacity="0"></stop><stop offset=".02" stop-color="#fff" stop-opacity=".19"></stop><stop offset=".05" stop-color="#fff" stop-opacity=".36"></stop><stop offset=".08" stop-color="#fff" stop-opacity=".51"></stop><stop offset=".11" stop-color="#fff" stop-opacity=".64"></stop><stop offset=".14" stop-color="#fff" stop-opacity=".75"></stop><stop offset=".18" stop-color="#fff" stop-opacity=".85"></stop><stop offset=".22" stop-color="#fff" stop-opacity=".92"></stop><stop offset=".27" stop-color="#fff" stop-opacity=".96"></stop><stop offset=".34" stop-color="#fff" stop-opacity=".99"></stop><stop offset=".5" stop-color="#fff"></stop><stop offset=".66" stop-color="#fff" stop-opacity=".99"></stop><stop offset=".73" stop-color="#fff" stop-opacity=".96"></stop><stop offset=".78" stop-color="#fff" stop-opacity=".92"></stop><stop offset=".82" stop-color="#fff" stop-opacity=".85"></stop><stop offset=".86" stop-color="#fff" stop-opacity=".75"></stop><stop offset=".89" stop-color="#fff" stop-opacity=".64"></stop><stop offset=".92" stop-color="#fff" stop-opacity=".51"></stop><stop offset=".95" stop-color="#fff" stop-opacity=".36"></stop><stop offset=".98" stop-color="#fff" stop-opacity=".19"></stop><stop offset="1" stop-color="#fff" stop-opacity="0"></stop></linearGradient><linearGradient id="linear-gradient-17" x1="224.42" y1="284.92" x2="227.65" y2="284.92" gradientUnits="userSpaceOnUse"><stop offset="0" stop-color="#fff" stop-opacity="0"></stop><stop offset=".02" stop-color="#fff" stop-opacity=".19"></stop><stop offset=".05" stop-color="#fff" stop-opacity=".36"></stop><stop offset=".08" stop-color="#fff" stop-opacity=".51"></stop><stop offset=".11" stop-color="#fff" stop-opacity=".64"></stop><stop offset=".14" stop-color="#fff" stop-opacity=".75"></stop><stop offset=".18" stop-color="#fff" stop-opacity=".85"></stop><stop offset=".22" stop-color="#fff" stop-opacity=".92"></stop><stop offset=".27" stop-color="#fff" stop-opacity=".96"></stop><stop offset=".34" stop-color="#fff" stop-opacity=".99"></stop><stop offset=".5" stop-color="#fff"></stop><stop offset=".66" stop-color="#fff" stop-opacity=".99"></stop><stop offset=".73" stop-color="#fff" stop-opacity=".96"></stop><stop offset=".78" stop-color="#fff" stop-opacity=".92"></stop><stop offset=".82" stop-color="#fff" stop-opacity=".85"></stop><stop offset=".86" stop-color="#fff" stop-opacity=".75"></stop><stop offset=".89" stop-color="#fff" stop-opacity=".64"></stop><stop offset=".92" stop-color="#fff" stop-opacity=".51"></stop><stop offset=".95" stop-color="#fff" stop-opacity=".36"></stop><stop offset=".98" stop-color="#fff" stop-opacity=".19"></stop><stop offset="1" stop-color="#fff" stop-opacity="0"></stop></linearGradient><linearGradient id="linear-gradient-18" x1="10.25" y1="15.72" x2="21.24" y2="15.72" gradientUnits="userSpaceOnUse"><stop offset="0" stop-color="#fff" stop-opacity="0"></stop><stop offset=".02" stop-color="#fff" stop-opacity=".19"></stop><stop offset=".05" stop-color="#fff" stop-opacity=".36"></stop><stop offset=".08" stop-color="#fff" stop-opacity=".51"></stop><stop offset=".11" stop-color="#fff" stop-opacity=".64"></stop><stop offset=".14" stop-color="#fff" stop-opacity=".75"></stop><stop offset=".18" stop-color="#fff" stop-opacity=".85"></stop><stop offset=".22" stop-color="#fff" stop-opacity=".92"></stop><stop offset=".27" stop-color="#fff" stop-opacity=".96"></stop><stop offset=".34" stop-color="#fff" stop-opacity=".99"></stop><stop offset=".5" stop-color="#fff"></stop><stop offset=".66" stop-color="#fff" stop-opacity=".99"></stop><stop offset=".73" stop-color="#fff" stop-opacity=".96"></stop><stop offset=".78" stop-color="#fff" stop-opacity=".92"></stop><stop offset=".82" stop-color="#fff" stop-opacity=".85"></stop><stop offset=".86" stop-color="#fff" stop-opacity=".75"></stop><stop offset=".89" stop-color="#fff" stop-opacity=".64"></stop><stop offset=".92" stop-color="#fff" stop-opacity=".51"></stop><stop offset=".95" stop-color="#fff" stop-opacity=".36"></stop><stop offset=".98" stop-color="#fff" stop-opacity=".19"></stop><stop offset="1" stop-color="#fff" stop-opacity="0"></stop></linearGradient><linearGradient id="linear-gradient-19" x1="10.25" y1="188.36" x2="282.67" y2="188.36" gradientUnits="userSpaceOnUse"><stop offset="0" stop-color="#fff" stop-opacity="0"></stop><stop offset=".02" stop-color="#fff" stop-opacity=".19"></stop><stop offset=".05" stop-color="#fff" stop-opacity=".36"></stop><stop offset=".08" stop-color="#fff" stop-opacity=".51"></stop><stop offset=".11" stop-color="#fff" stop-opacity=".64"></stop><stop offset=".14" stop-color="#fff" stop-opacity=".75"></stop><stop offset=".18" stop-color="#fff" stop-opacity=".85"></stop><stop offset=".22" stop-color="#fff" stop-opacity=".92"></stop><stop offset=".27" stop-color="#fff" stop-opacity=".96"></stop><stop offset=".34" stop-color="#fff" stop-opacity=".99"></stop><stop offset=".5" stop-color="#fff"></stop><stop offset=".66" stop-color="#fff" stop-opacity=".99"></stop><stop offset=".73" stop-color="#fff" stop-opacity=".96"></stop><stop offset=".78" stop-color="#fff" stop-opacity=".92"></stop><stop offset=".82" stop-color="#fff" stop-opacity=".85"></stop><stop offset=".86" stop-color="#fff" stop-opacity=".75"></stop><stop offset=".89" stop-color="#fff" stop-opacity=".64"></stop><stop offset=".92" stop-color="#fff" stop-opacity=".51"></stop><stop offset=".95" stop-color="#fff" stop-opacity=".36"></stop><stop offset=".98" stop-color="#fff" stop-opacity=".19"></stop><stop offset="1" stop-color="#fff" stop-opacity="0"></stop></linearGradient><linearGradient id="linear-gradient-20" x1="19.01" y1="23.78" x2="28.6" y2="23.78" gradientUnits="userSpaceOnUse"><stop offset="0" stop-color="#fff" stop-opacity="0"></stop><stop offset=".02" stop-color="#fff" stop-opacity=".19"></stop><stop offset=".05" stop-color="#fff" stop-opacity=".36"></stop><stop offset=".08" stop-color="#fff" stop-opacity=".51"></stop><stop offset=".11" stop-color="#fff" stop-opacity=".64"></stop><stop offset=".14" stop-color="#fff" stop-opacity=".75"></stop><stop offset=".18" stop-color="#fff" stop-opacity=".85"></stop><stop offset=".22" stop-color="#fff" stop-opacity=".92"></stop><stop offset=".27" stop-color="#fff" stop-opacity=".96"></stop><stop offset=".34" stop-color="#fff" stop-opacity=".99"></stop><stop offset=".5" stop-color="#fff"></stop><stop offset=".66" stop-color="#fff" stop-opacity=".99"></stop><stop offset=".73" stop-color="#fff" stop-opacity=".96"></stop><stop offset=".78" stop-color="#fff" stop-opacity=".92"></stop><stop offset=".82" stop-color="#fff" stop-opacity=".85"></stop><stop offset=".86" stop-color="#fff" stop-opacity=".75"></stop><stop offset=".89" stop-color="#fff" stop-opacity=".64"></stop><stop offset=".92" stop-color="#fff" stop-opacity=".51"></stop><stop offset=".95" stop-color="#fff" stop-opacity=".36"></stop><stop offset=".98" stop-color="#fff" stop-opacity=".19"></stop><stop offset="1" stop-color="#fff" stop-opacity="0"></stop></linearGradient><linearGradient id="linear-gradient-21" x1="19.01" y1="180.3" x2="275.31" y2="180.3" gradientUnits="userSpaceOnUse"><stop offset="0" stop-color="#fff" stop-opacity="0"></stop><stop offset=".02" stop-color="#fff" stop-opacity=".19"></stop><stop offset=".05" stop-color="#fff" stop-opacity=".36"></stop><stop offset=".08" stop-color="#fff" stop-opacity=".51"></stop><stop offset=".11" stop-color="#fff" stop-opacity=".64"></stop><stop offset=".14" stop-color="#fff" stop-opacity=".75"></stop><stop offset=".18" stop-color="#fff" stop-opacity=".85"></stop><stop offset=".22" stop-color="#fff" stop-opacity=".92"></stop><stop offset=".27" stop-color="#fff" stop-opacity=".96"></stop><stop offset=".34" stop-color="#fff" stop-opacity=".99"></stop><stop offset=".5" stop-color="#fff"></stop><stop offset=".66" stop-color="#fff" stop-opacity=".99"></stop><stop offset=".73" stop-color="#fff" stop-opacity=".96"></stop><stop offset=".78" stop-color="#fff" stop-opacity=".92"></stop><stop offset=".82" stop-color="#fff" stop-opacity=".85"></stop><stop offset=".86" stop-color="#fff" stop-opacity=".75"></stop><stop offset=".89" stop-color="#fff" stop-opacity=".64"></stop><stop offset=".92" stop-color="#fff" stop-opacity=".51"></stop><stop offset=".95" stop-color="#fff" stop-opacity=".36"></stop><stop offset=".98" stop-color="#fff" stop-opacity=".19"></stop><stop offset="1" stop-color="#fff" stop-opacity="0"></stop></linearGradient><symbol id="Sensos-Label-3D" viewBox="0 0 303.31 303.31"><g><path class="cls-47" d="M297.66,204.09h-15.18c-.56,0-1.07-.33-1.3-.85-.38-.87-1.3-1.39-2.24-1.26s-1.69.87-1.82,1.82c-.13.94.38,1.86,1.26,2.24.52.22.85.73.85,1.3v90.3c0,3.13-2.54,5.67-5.67,5.67h-59.53c-3.13,0-5.67-2.54-5.67-5.67v-90.3c0-.56.33-1.07.85-1.3.87-.38,1.38-1.29,1.25-2.24-.13-.94-.87-1.68-1.82-1.81-.94-.13-1.86.38-2.24,1.26-.23.52-.74.85-1.3.85H5.67c-3.13,0-5.67-2.54-5.67-5.67V5.67C0,2.54,2.54,0,5.67,0h291.97c3.13,0,5.67,2.54,5.67,5.67v192.75c0,3.13-2.54,5.67-5.67,5.67h.02ZM7.67,4.81c-1.56,0-2.83,1.27-2.83,2.83s1.27,2.84,2.83,2.84,2.84-1.27,2.84-2.84-1.27-2.83-2.84-2.83ZM7.67,193.6c-1.56,0-2.83,1.27-2.83,2.84s1.27,2.84,2.83,2.84,2.84-1.27,2.84-2.84-1.27-2.84-2.84-2.84Z"></path><polyline class="cls-3" points="28.31 184.81 20.96 192.17 20.96 193.57"></polyline><polyline class="cls-3" points="19.3 28.29 11.94 20.93 10.54 20.93"></polyline><polyline class="cls-3" points="28.31 19.27 20.96 11.91 20.96 10.51"></polyline><polyline class="cls-3" points="284.05 28.29 291.41 20.93 292.81 20.93"></polyline><polyline class="cls-3" points="10.54 183.15 11.94 183.15 19.3 175.79"></polyline><polyline class="cls-3" points="284.05 175.79 291.41 183.15 292.81 183.15"></polyline><polyline class="cls-3" points="282.39 10.51 282.39 11.91 275.03 19.27"></polyline><polyline class="cls-3" points="282.39 193.57 282.39 192.17 275.03 184.81"></polyline><polygon class="cls-3" points="291.41 183.15 291.42 183.85 291.37 184.99 291.26 185.82 291.03 186.8 290.72 187.69 290.32 188.5 290.27 188.58 289.78 189.31 289.21 189.97 288.56 190.54 287.82 191.03 287.74 191.08 286.93 191.48 286.04 191.79 285.06 192.02 284.23 192.13 283.09 192.18 282.39 192.17 20.96 192.17 20.25 192.18 19.12 192.13 18.29 192.02 17.31 191.79 16.42 191.48 15.61 191.08 15.53 191.03 14.79 190.54 14.14 189.97 13.57 189.32 13.08 188.59 13.03 188.5 12.63 187.69 12.32 186.8 12.09 185.83 11.98 184.99 11.92 183.85 11.94 183.15 11.94 20.93 11.92 20.23 11.98 19.09 12.09 18.26 12.32 17.28 12.63 16.39 13.02 15.58 13.07 15.5 13.57 14.76 14.14 14.11 14.79 13.55 15.52 13.05 15.61 13 16.41 12.6 17.31 12.29 18.28 12.06 19.12 11.95 20.25 11.9 20.96 11.91 282.39 11.91 283.09 11.9 284.23 11.95 285.06 12.06 286.04 12.29 286.93 12.6 287.74 13 287.82 13.05 288.55 13.54 289.2 14.11 289.77 14.76 290.27 15.49 290.32 15.58 290.72 16.39 291.03 17.28 291.26 18.25 291.37 19.09 291.42 20.22 291.41 20.93 291.41 183.15"></polygon><path class="cls-46" d="M284.05,28.29v-.37l-.08-1.14-.18-1.06-.27-.98-.32-.8-.44-.83-.51-.74-.6-.68-.68-.6-.74-.51-.83-.44-.8-.32-.98-.28-1.06-.18-1.14-.09H27.96l-1.14.09-1.06.18-.98.27-.8.32-.83.44-.74.51-.68.6-.6.68-.51.74-.44.83-.32.8-.28.98-.18,1.06-.08,1.14v148.24l.08,1.14.18,1.06.27.98.32.8.44.83.51.74.6.68.68.6.74.51.83.44.8.32.98.28,1.06.18,1.14.09h247.46l1.14-.09,1.06-.18.98-.27.8-.32.83-.44.74-.51.68-.6.6-.68.51-.74.44-.83.32-.8.28-.98.18-1.06.08-1.14V28.29Z"></path><path class="cls-39" d="M256.56,127.13c0,1.17-.95,2.13-2.13,2.13s-2.13-.95-2.13-2.13.95-2.13,2.13-2.13,2.13.95,2.13,2.13"></path><g class="cls-38"><path class="cls-39" d="M129.22,145.86c-2.72,0-4.93-2.21-4.93-4.93s2.21-4.93,4.93-4.93,4.93,2.21,4.93,4.93-2.21,4.93-4.93,4.93ZM129.22,137.4c-1.94,0-3.52,1.58-3.52,3.52s1.58,3.52,3.52,3.52,3.52-1.58,3.52-3.52-1.58-3.52-3.52-3.52ZM143.85,141.66l-.9.24c-.99.28-1.44.66-1.44,1.31,0,.7.51,1.25,1.53,1.25s1.54-.5,1.73-1.17h1.49c0,1.13-.54,1.76-1.17,2.11h-.02c-.28.15-.57.26-.85.32h-.02c-.6.14-1.09.11-1.09.11h0c-1.94,0-3.25-1.03-3.25-2.74,0-1.44.87-2.33,2.59-2.77l.77-.19c1.07-.29,1.55-.69,1.55-1.43,0-.84-.7-1.35-1.68-1.35-1.07,0-1.75.52-2.01,1.25h-1.44c0-2.8,3.43-2.64,3.43-2.64h0c1.96,0,3.35,1.07,3.35,2.78,0,1.53-.9,2.45-2.56,2.89v.03ZM116.08,141.66l-.9.24c-.99.28-1.44.66-1.44,1.31,0,.7.51,1.25,1.53,1.25s1.54-.5,1.73-1.17h1.49c0,1.13-.54,1.76-1.17,2.11h-.01c-.28.16-.57.26-.85.32h-.02c-.6.14-1.09.11-1.09.11-1.94,0-3.25-1.03-3.25-2.74,0-1.44.87-2.33,2.59-2.77l.76-.19c1.07-.29,1.55-.69,1.55-1.43,0-.84-.7-1.35-1.68-1.35-1.07,0-1.75.52-2.01,1.25h-1.44c0-2.8,3.42-2.64,3.43-2.64h0c1.96,0,3.35,1.07,3.35,2.78,0,1.53-.9,2.45-2.56,2.89v.03ZM74.42,141.66l-.9.24c-.99.28-1.44.66-1.44,1.31,0,.7.51,1.25,1.53,1.25s1.54-.5,1.73-1.17h1.49c0,1.13-.54,1.76-1.17,2.11h-.02c-.28.15-.57.26-.85.32h-.02c-.6.14-1.09.11-1.09.11h0c-1.94,0-3.25-1.03-3.25-2.74,0-1.44.87-2.33,2.59-2.77l.76-.19c1.07-.29,1.55-.69,1.55-1.43,0-.84-.7-1.35-1.68-1.35-1.07,0-1.75.52-2.01,1.25h-1.44c0-2.8,3.42-2.64,3.43-2.64h0c1.96,0,3.35,1.07,3.35,2.78,0,1.53-.9,2.45-2.56,2.89v.03ZM103.7,138.92l-4.52,6.78h-1.57v-9.56h1.57v6.68l4.52-6.68h1.57v9.56h-1.57v-6.78ZM84.7,136.15h5.71v1.43h-4.01v2.79h3.61v1.38h-3.61v2.54h4.01v1.43h-5.71v-9.56h0ZM53.05,155.99l-15.07-8.7v-8.75l6.97-4.03v-8.65l15.07,8.7v8.72l-6.97,4.03v8.68ZM39.11,145.98l5.27-3.05-5.27-3.04v6.09ZM44.95,135.82l-5.32,3.08,5.32,3.07v-6.15h0ZM39.67,146.96l12.25,7.07v-6.75l-6.41-3.7-5.84,3.38h0ZM51.92,145.98v-6.75l-5.84-3.37v6.75l5.84,3.37ZM46.08,127.82v6.75l6.39,3.69,5.84-3.38-12.23-7.06ZM58.89,135.84l-5.29,3.06,5.29,3.05v-6.11ZM58.35,142.94l-5.29-3.06v6.12l5.29-3.06ZM149.92,145.21h.73v-2.3h.56v2.3h.73v.52h-2.02v-.52h0ZM154.89,145.74l-.72-1.65-.72,1.65h-.61v-2.82h.53v1.88l.6-1.43h.4l.61,1.43v-1.88h.53v2.82h-.62Z"></path><g><path class="cls-39" d="M236.86,65.79v2.06l4.13,4.28v1.08l-5.02-5.2h-.23l.05.56.22-.04c.48,0,.86.4.86.89s-.38.89-.87.89h0l-.17-.02c-.11-.03-.22-.07-.33-.15l-.08-.07c-.21.24-.52.44-.91.59-.14.06-.3.11-.49.16l-.14.04-.69.13s-.09,0-.14.02v.26h-2.92v-.18c-.09,0-.19,0-.28-.02h-.06c-.29-.03-.58-.08-.86-.13v.05h-1.24v-.42c-.06-.03-.12-.06-.17-.09l-.34-.22-.26-.25-.18-.26-.1-.23h-.69v-.84h.78l.11-1.25-5.39,5.8v-1.09l5.5-5.92.6-6.94-5.86-6.06.58-.52,5.36,5.56.21-2.38c0-.14.09-.27.2-.33v-.86h1.28v.81h3.68l.08-.13h0c.3-.39.74-.63,1.24-.67h.3l.34.07.32.13.26.17.2.19c.1.12.19.24.25.37l.16.42.04.2,3.31-3.56.54.55-4.07,4.37-.99,1.05.58,7.13h1.31,0ZM236.11,67.07v-.49h-.48l.48.49ZM228.91,70.11c.05,0,.11.02.16.03l.42.07c.2.02.41.04.62.06v-.5h2.91v.43l.36-.06c.21-.04.39-.08.54-.13.11-.03.21-.06.31-.1.28-.11.49-.24.62-.39h-5.95v.6h.01ZM227.67,69.65v-.14h-.17l.17.14ZM227.78,65.3l2.73-2.94-2.27-2.36-.45,5.29h0ZM232.9,57.23l-.12-.28-.08-.51v-.15h-4.17l-.23,2.71,2.71,2.81,3.16-3.4-.02-.25-.29-.07c-.09-.03-.19-.07-.3-.13l-.11-.07-.39-.36-.19-.29h.03ZM234.27,59.42l-2.72,2.92,3.23,3.35-.51-6.27ZM234.96,68.01h-.23v-1.27l-1.02-1.06v.39h-3.66v-1.35h2.73l-1.75-1.82-3.36,3.61-.19,2.16h7.54l-.06-.66h0Z"></path><path class="cls-39" d="M261.31,65.79v2.06l4.13,4.28v1.08l-5.02-5.2h-.23l.05.56.22-.04c.48,0,.86.4.86.89s-.38.89-.87.89h0l-.17-.02c-.11-.03-.22-.07-.33-.15l-.08-.07c-.21.24-.52.44-.91.59-.14.06-.3.11-.49.16l-.14.04-.69.13s-.09,0-.14.02v.26h-2.92v-.18c-.09,0-.19,0-.28-.02h-.06c-.29-.03-.58-.08-.86-.13v.05h-1.24v-.42c-.06-.03-.12-.06-.17-.09l-.34-.22-.26-.25-.18-.26-.1-.23h-.69v-.84h.78l.11-1.25-5.39,5.8v-1.09l5.5-5.92.6-6.94-5.86-6.06.58-.52,5.36,5.56.21-2.38c0-.14.09-.27.2-.33v-.86h1.28v.81h3.68l.08-.13h0c.3-.39.74-.63,1.24-.67h.3l.34.07.32.13.26.17.2.19c.1.12.19.24.25.37l.16.42.04.2,3.31-3.56.54.55-4.07,4.37-.99,1.05.58,7.13h1.31-.01ZM260.56,67.07v-.49h-.48l.48.49ZM253.36,70.11c.05,0,.11.02.16.03l.42.07c.2.02.41.04.62.06v-.5h2.91v.43l.36-.06c.21-.04.39-.08.54-.13.11-.03.21-.06.31-.1.28-.11.49-.24.62-.39h-5.95v.6h.01ZM252.12,69.65v-.14h-.17l.17.14ZM252.22,65.3l2.73-2.94-2.27-2.36-.45,5.29h0ZM257.35,57.23l-.12-.28-.08-.51v-.15h-4.17l-.23,2.71,2.71,2.81,3.16-3.4-.02-.25-.29-.07c-.09-.03-.19-.07-.3-.13l-.11-.07-.39-.36-.19-.29h.03ZM258.71,59.42l-2.72,2.92,3.23,3.35-.51-6.27ZM259.41,68.01h-.23v-1.27l-1.02-1.06v.39h-3.66v-1.35h2.73l-1.75-1.82-3.36,3.61-.19,2.16h7.54l-.06-.66h0Z"></path><rect class="cls-39" x="223.08" y="44.76" width="16.26" height="4.28"></rect><path class="cls-39" d="M253.68,38.83c.25,0,.55-.08.8-.11v2.44c-.25.03-.58.04-.85.04-4.32,0-7.86-3.5-7.86-7.83s3.4-7.84,7.81-7.84c.27,0,.59.03.85.06v2.37c-.24-.03-.49-.05-.75-.05-2.63,0-4.82,1.81-5.34,4.28h4.52v2.36h-4.51c.54,2.45,2.72,4.28,5.33,4.28h0ZM240.39,38.83c.25,0,.51-.02.75-.05v2.38c-.27.03-.57.06-.84.06-4.32,0-7.79-3.52-7.79-7.84s3.5-7.82,7.83-7.82c.27,0,.54.01.8.04v2.37c-.24-.03-.49-.05-.74-.05-3.01,0-5.46,2.44-5.46,5.46s2.45,5.46,5.46,5.46h-.01Z"></path><path class="cls-39" d="M202.14,71.65v1.38h-2.7v-2.7h1.38v1.32h1.32,0ZM212.93,73.03h-8.09v-9.47h9.47v9.47h-1.38ZM212.93,70.33v-5.39h-6.71v6.71h6.71v-1.32ZM198.12,71.65h-1.38v-1.32h1.38v1.32ZM203.52,70.33v1.32h-1.38v-1.32h1.38ZM200.82,70.33v-1.38h1.32v1.38h-1.32ZM208.91,70.33h-1.38v-4.08h4.08v4.08h-2.7ZM191.35,66.26h1.38v4.08h-4.08v-4.08h2.7ZM199.44,66.26h1.38v1.38h-1.38v1.32h-1.32v-1.32h-1.38v-1.38h2.7ZM188.65,63.56h6.77v9.47h-9.47v-9.47h2.7ZM187.34,66.26v5.39h6.71v-6.71h-6.71v1.32ZM196.75,64.94v-1.38h1.38v1.38h-1.38ZM185.96,62.24v-1.38h1.38v1.38h-1.38ZM190.03,62.24h-1.38v-1.38h-1.32v-1.32h2.7v2.7h0ZM194.05,62.24v-1.38h1.38v1.38h-1.38ZM202.14,62.24h1.38v6.71h-1.38v-5.39h-1.32v1.38h-1.38v-1.38h-1.32v-1.32h2.7v-1.38h1.32v1.38h0ZM208.91,62.24h-1.38v-1.38h1.38v1.38ZM212.93,62.24h-1.32v-1.38h1.32v1.38ZM192.73,60.86v1.38h-1.38v-2.7h-1.32v-1.38h2.7v2.7h0ZM198.12,59.55h1.32v-1.38h1.38v2.7h-5.39v-1.32h2.7-.01ZM206.21,60.86h-1.38v-1.32h2.7v1.32h-1.32,0ZM211.61,60.86h-2.7v-1.32h1.32v-1.38h2.7v1.38h-1.32v1.32ZM212.93,59.55h1.38v1.32h-1.38v-1.32ZM194.05,58.17h1.38v1.38h-1.38v-1.38ZM202.14,58.17h1.38v1.38h-1.38v-1.38ZM208.91,59.55h-1.38v-1.38h1.38v1.38ZM187.34,58.17v-1.32h-1.38v-1.38h2.7v1.38h1.38v1.32h-2.7ZM192.73,56.85v-1.38h2.7v1.38h-1.38v1.32h-1.32v-1.32h0ZM196.75,58.17v-1.32h1.38v1.32h-1.38ZM206.21,58.17h-1.38v-2.7h1.38v1.38h1.32v1.32h-1.32ZM208.91,56.85h1.32v1.32h-1.32v-1.32ZM203.52,56.85h-1.38v-1.38h1.38v1.38ZM207.53,55.47v-2.7h1.38v4.08h-1.38v-1.38ZM211.61,56.85v-1.38h2.7v1.38h-2.7ZM203.52,54.15v-1.38h-1.38v2.7h-1.32v1.38h-2.7v-1.38h-1.38v-1.32h1.38v-2.7h-1.38v-1.38h1.38v-1.32h-1.38v-1.38h2.7v-1.32h1.38v4.01h1.32v1.38h1.38v-1.38h1.32v-1.32h4.08v2.7h-4.08v1.32h1.38v1.38h-1.38v1.32h-1.32v-1.32h0ZM200.82,52.77v-1.32h-1.38v2.7h1.38v-1.38h0ZM192.73,54.15h-6.77v-9.47h9.47v9.47h-2.7ZM194.05,51.45v-5.39h-6.71v6.71h6.71v-1.32h0ZM211.61,54.15h-1.38v-1.38h2.7v1.38h-1.32,0ZM212.93,51.45v-1.38h1.38v2.7h-1.38v-1.32h0ZM190.03,51.45h-1.38v-4.08h4.08v4.08h-2.7ZM211.61,48.76h1.32v1.32h-1.32v-1.32ZM202.14,47.38h1.38v1.38h-1.38v-1.38ZM210.23,47.38v-2.7h1.38v4.08h-1.38v-1.38ZM214.3,47.38v1.38h-1.38v-1.38h1.38ZM204.84,46.06v-1.38h1.38v2.7h-1.38v-1.32ZM196.75,46.06v-1.38h2.7v1.38h-2.7ZM202.14,44.68h1.38v1.38h-1.38v-1.38ZM212.93,44.68h1.38v1.38h-1.38v-1.38Z"></path><path class="cls-40" d="M38.15,44.92h1.69v28.34h-1.69v-28.34ZM41.04,44.92h.63v28.34h-.63v-28.34ZM43.79,44.92h2.61v28.34h-2.61v-28.34ZM48.51,44.92h3.52v28.34h-3.52v-28.34ZM53.23,44.92h.7v28.34h-.7v-28.34ZM55.06,44.92h2.61v28.34h-2.61v-28.34ZM58.87,44.92h.7v28.34h-.7v-28.34ZM62.6,44.92h.71v28.34h-.71v-28.34ZM66.34,44.92h1.69v28.34h-1.69v-28.34ZM69.16,44.92h.7v28.34h-.7v-28.34ZM71.06,44.92h2.61v28.34h-2.61v-28.34ZM75.78,44.92h1.62v28.34h-1.62v-28.34ZM79.52,44.92h1.62v28.34h-1.62v-28.34ZM82.33,44.92h2.61v28.34h-2.61v-28.34ZM87.06,44.92h.71v28.34h-.71v-28.34ZM89.87,44.92h1.62v28.34h-1.62v-28.34ZM93.61,44.92h.71v28.34h-.71v-28.34ZM97.34,44.92h.71v28.34h-.71v-28.34ZM100.16,44.92h.71v28.34h-.71v-28.34ZM103.97,44.92h1.62v28.34h-1.62v-28.34ZM107.71,44.92h.7v28.34h-.7v-28.34ZM110.52,44.92h.7v28.34h-.7v-28.34ZM113.34,44.92h1.62v28.34h-1.62v-28.34ZM117.08,44.92h.7v28.34h-.7v-28.34ZM120.88,44.92h2.54v28.34h-2.54v-28.34ZM126.52,44.92h1.62v28.34h-1.62s0-28.34,0-28.34ZM129.34,44.92h.71v28.34h-.71v-28.34ZM131.17,44.92h.7v28.34h-.7v-28.34ZM133.07,44.92h3.52v28.34h-3.52v-28.34ZM137.79,44.92h2.54v28.34h-2.54v-28.34ZM141.53,44.92h1.62v28.34h-1.62v-28.34ZM144.35,44.92h2.61v28.34h-2.61v-28.34ZM149.07,44.92h.7v28.34h-.7v-28.34ZM151.89,44.92h.7v28.34h-.7v-28.34ZM156.54,44.92h.7v28.34h-.7v-28.34ZM159.36,44.92h1.69v28.34h-1.69v-28.34ZM162.18,44.92h1.69v28.34h-1.69v-28.34ZM166.9,44.92h2.61v28.34h-2.61v-28.34ZM170.63,44.92h.71v28.34h-.71v-28.34ZM172.54,73.26v-28.34h1.62v28.34h-1.62Z"></path><path class="cls-40" d="M244.64,198.91c4.46,5.03,1.21,9.07-.23,10.46,0,.01-.06.06-.1.1l.71.87-4.32,1.55,2.32-4.02.63.77s0-.02.02-.03c1.52-1.54,4.06-5.07.06-9.18l-.71.87-2.32-4.02,4.32,1.55-.64.79c.09.1.22.25.27.29h-.01Z"></path></g><g><g class="cls-32"><text class="cls-29" transform="translate(175.55 153.28) scale(.92 -1)"><tspan x="0" y="0">P</tspan></text><text class="cls-28" transform="translate(179.17 153.28) scale(.92 -1)"><tspan x="0" y="0">r</tspan></text><text class="cls-22" transform="translate(181.34 153.28) scale(.92 -1)"><tspan x="0" y="0">o</tspan></text><text class="cls-18" transform="translate(184.85 153.28) scale(.92 -1)"><tspan x="0" y="0">d</tspan></text><text class="cls-22" transform="translate(188.56 153.28) scale(.92 -1)"><tspan x="0" y="0">uct in</tspan></text><text class="cls-28" transform="translate(203.82 153.28) scale(.92 -1)"><tspan x="0" y="0">f</tspan></text><text class="cls-22" transform="translate(205.95 153.28) scale(.92 -1)"><tspan x="0" y="0">ormation:</tspan></text></g><g class="cls-32"><text class="cls-37" transform="translate(226.68 213.95) scale(.92 -1)"><tspan x="0" y="0">F</tspan></text><text class="cls-37" transform="translate(230.25 213.95) scale(.92 -1)"><tspan x="0" y="0">OLD HERE</tspan></text></g><g class="cls-32"><text class="cls-27" transform="translate(37.55 93.04) scale(.92 -1)"><tspan x="0" y="0">P</tspan></text><text class="cls-22" transform="translate(41.11 93.04) scale(.92 -1)"><tspan x="0" y="0">a</tspan></text><text class="cls-19" transform="translate(44.72 93.04) scale(.92 -1)"><tspan x="0" y="0">r</tspan></text><text class="cls-22" transform="translate(47.14 93.04) scale(.92 -1)"><tspan x="0" y="0">t number: SLS-2000-00-B-10</tspan></text></g><g class="cls-32"><text class="cls-22" transform="translate(37.55 29.53) scale(.92 -1)"><tspan x="0" y="0">User Manual: https:</tspan></text><text class="cls-34" transform="translate(90.47 29.53) scale(.92 -1)"><tspan x="0" y="0">/</tspan></text><text class="cls-22" transform="translate(93.12 29.53) scale(.92 -1)"><tspan x="0" y="0">/</tspan></text><text class="cls-22" transform="translate(96.3 29.53) scale(.92 -1)"><tspan x="0" y="0">l</tspan></text><text class="cls-22" transform="translate(97.67 29.53) scale(.92 -1)"><tspan x="0" y="0">abel.sensos.i</tspan></text><text class="cls-31" transform="translate(132.27 29.53) scale(.92 -1)"><tspan x="0" y="0">o</tspan></text><text class="cls-22" transform="translate(135.5 29.53) scale(.92 -1)"><tspan x="0" y="0">/manual</tspan></text></g><g class="cls-32"><text class="cls-24" transform="translate(37.55 85.6) scale(.92 -1)"><tspan x="0" y="0">L</tspan></text><text class="cls-22" transform="translate(40.85 85.6) scale(.92 -1)"><tspan x="0" y="0">ot number: C01C35</tspan></text></g><g class="cls-32"><text class="cls-22" transform="translate(37.55 78.16) scale(.92 -1)"><tspan x="0" y="0">IMEI 3515892551</tspan></text><text class="cls-28" transform="translate(84.28 78.16) scale(.92 -1)"><tspan x="0" y="0">7</tspan></text><text class="cls-22" transform="translate(87.26 78.16) scale(.92 -1)"><tspan x="0" y="0">8391</tspan></text></g><g class="cls-32"><text class="cls-22" transform="translate(175.55 145.84) scale(.92 -1)"><tspan x="0" y="0">Model name: Gen 2.0</tspan></text></g><g class="cls-32"><text class="cls-17" transform="translate(175.55 138.4) scale(.9 -1)"><tspan x="0" y="0">M</tspan></text><text class="cls-20" transform="translate(180.51 138.4) scale(.9 -1)"><tspan x="0" y="0">a</tspan></text><text class="cls-20" transform="translate(184.17 138.4) scale(.9 -1)"><tspan x="0" y="0">n</tspan></text><text class="cls-12" transform="translate(187.61 138.4) scale(.9 -1)"><tspan x="0" y="0">u</tspan></text><text class="cls-12" transform="translate(191.05 138.4) scale(.9 -1)"><tspan x="0" y="0">f</tspan></text><text class="cls-15" transform="translate(193.32 138.4) scale(.9 -1)"><tspan x="0" y="0">a</tspan></text><text class="cls-13" transform="translate(196.99 138.4) scale(.9 -1)"><tspan x="0" y="0">c</tspan></text><text class="cls-17" transform="translate(200.19 138.4) scale(.9 -1)"><tspan x="0" y="0">t</tspan></text><text class="cls-20" transform="translate(202.44 138.4) scale(.9 -1)"><tspan x="0" y="0">u</tspan></text><text class="cls-12" transform="translate(205.95 138.4) scale(.9 -1)"><tspan x="0" y="0">r</tspan></text><text class="cls-15" transform="translate(208.27 138.4) scale(.9 -1)"><tspan x="0" y="0">e</tspan></text><text class="cls-22" transform="translate(211.68 138.4) scale(.9 -1)"><tspan x="0" y="0">d </tspan></text><text class="cls-22" transform="translate(216.79 138.4) scale(.9 -1)"><tspan x="0" y="0">b</tspan></text><text class="cls-13" transform="translate(220.34 138.4) scale(.9 -1)"><tspan x="0" y="0">y</tspan></text><text class="cls-22" transform="translate(223.81 138.4) scale(.9 -1)"><tspan x="0" y="0">: </tspan></text><text class="cls-17" transform="translate(226.64 138.4) scale(.9 -1)"><tspan x="0" y="0">S</tspan></text><text class="cls-15" transform="translate(230.25 138.4) scale(.9 -1)"><tspan x="0" y="0">e</tspan></text><text class="cls-20" transform="translate(233.67 138.4) scale(.9 -1)"><tspan x="0" y="0">n</tspan></text><text class="cls-20" transform="translate(237.09 138.4) scale(.9 -1)"><tspan x="0" y="0">s</tspan></text><text class="cls-20" transform="translate(239.89 138.4) scale(.9 -1)"><tspan x="0" y="0">o</tspan></text><text class="cls-20" transform="translate(243.41 138.4) scale(.9 -1)"><tspan x="0" y="0">s</tspan></text><text class="cls-25" transform="translate(246.21 138.4) scale(.9 -1)"><tspan x="0" y="0">L</tspan></text><text class="cls-20" transform="translate(249.58 138.4) scale(.9 -1)"><tspan x="0" y="0">a</tspan></text><text class="cls-22" transform="translate(253.24 138.4) scale(.9 -1)"><tspan x="0" y="0">b</tspan></text><text class="cls-15" transform="translate(256.77 138.4) scale(.9 -1)"><tspan x="0" y="0">z</tspan></text><text class="cls-15" transform="translate(259.65 138.4) scale(.9 -1)"><tspan x="0" y="0">.</tspan></text><text class="cls-20" transform="translate(261.06 138.4) scale(.9 -1)"><tspan x="0" y="0">i</tspan></text><text class="cls-22" transform="translate(262.71 138.4) scale(.9 -1)"><tspan x="0" y="0">o </tspan></text><text class="cls-23" transform="translate(267.7 138.4) scale(.9 -1)"><tspan x="0" y="0">L</tspan></text><text class="cls-17" transform="translate(270.9 138.4) scale(.9 -1)"><tspan x="0" y="0">t</tspan></text><text class="cls-22" transform="translate(273.15 138.4) scale(.9 -1)"><tspan x="0" y="0">d</tspan></text></g><g class="cls-32"><text class="cls-22" transform="translate(175.55 130.96) scale(.9 -1)"><tspan x="0" y="0">I</tspan></text><text class="cls-20" transform="translate(178.24 130.96) scale(.9 -1)"><tspan x="0" y="0">n</tspan></text><text class="cls-20" transform="translate(181.7 130.96) scale(.9 -1)"><tspan x="0" y="0">c</tspan></text><text class="cls-20" transform="translate(184.81 130.96) scale(.9 -1)"><tspan x="0" y="0">l</tspan></text><text class="cls-15" transform="translate(186.33 130.96) scale(.9 -1)"><tspan x="0" y="0">u</tspan></text><text class="cls-15" transform="translate(189.85 130.96) scale(.9 -1)"><tspan x="0" y="0">d</tspan></text><text class="cls-20" transform="translate(193.53 130.96) scale(.9 -1)"><tspan x="0" y="0">e</tspan></text><text class="cls-22" transform="translate(196.91 130.96) scale(.9 -1)"><tspan x="0" y="0">s </tspan></text><text class="cls-33" transform="translate(201.14 130.96) scale(.9 -1)"><tspan x="0" y="0">L</tspan></text><text class="cls-21" transform="translate(204.14 130.96) scale(.9 -1)"><tspan x="0" y="0">T</tspan></text><text class="cls-22" transform="translate(207.42 130.96) scale(.9 -1)"><tspan x="0" y="0">E </tspan></text><text class="cls-14" transform="translate(212.4 130.96) scale(.9 -1)"><tspan x="0" y="0">mo</tspan></text><text class="cls-20" transform="translate(221.26 130.96) scale(.9 -1)"><tspan x="0" y="0">du</tspan></text><text class="cls-20" transform="translate(228.42 130.96) scale(.9 -1)"><tspan x="0" y="0">l</tspan></text><text class="cls-22" transform="translate(229.95 130.96) scale(.9 -1)"><tspan x="0" y="0">e</tspan></text></g><g class="cls-32"><text class="cls-22" transform="translate(175.55 123.52) scale(.9 -1)"><tspan x="0" y="0">FC</tspan></text><text class="cls-22" transform="translate(182.78 123.52) scale(.9 -1)"><tspan x="0" y="0">C </tspan></text><text class="cls-22" transform="translate(188.13 123.52) scale(.9 -1)"><tspan x="0" y="0">I</tspan></text><text class="cls-15" transform="translate(190.84 123.52) scale(.9 -1)"><tspan x="0" y="0">D</tspan></text><text class="cls-22" transform="translate(195.2 123.52) scale(.9 -1)"><tspan x="0" y="0">: </tspan></text><text class="cls-12" transform="translate(198.03 123.52) scale(.9 -1)"><tspan x="0" y="0">H</tspan></text><text class="cls-17" transform="translate(202.36 123.52) scale(.9 -1)"><tspan x="0" y="0">S</tspan></text><text class="cls-22" transform="translate(205.95 123.52) scale(.9 -1)"><tspan x="0" y="0">W</tspan></text><text class="cls-26" transform="translate(211.5 123.52) scale(.9 -1)"><tspan x="0" y="0">-</tspan></text><text class="cls-16" transform="translate(213.52 123.52) scale(.9 -1)"><tspan x="0" y="0">T</tspan></text><text class="cls-30" transform="translate(217.02 123.52) scale(.9 -1)"><tspan x="0" y="0">Y</tspan></text><text class="cls-20" transform="translate(220.74 123.52) scale(.9 -1)"><tspan x="0" y="0">1S</tspan></text><text class="cls-12" transform="translate(227.24 123.52) scale(.9 -1)"><tspan x="0" y="0">C</tspan></text><text class="cls-20" transform="translate(231.1 123.52) scale(.9 -1)"><tspan x="0" y="0">D</tspan></text><text class="cls-22" transform="translate(235.4 123.52) scale(.9 -1)"><tspan x="0" y="0">M</tspan></text></g></g></g><polygon class="cls-45" points="227.37 227.37 226.95 227.4 226.54 227.49 226.34 227.56 225.97 227.75 225.62 227.99 225.47 228.13 225.2 228.46 224.98 228.82 224.9 229.01 224.77 229.41 224.71 229.83 224.71 230.04 224.71 283.59 224.74 284.01 224.83 284.42 224.9 284.61 225.08 284.99 225.33 285.33 225.47 285.49 225.79 285.76 226.15 285.98 226.34 286.06 226.74 286.18 227.16 286.24 227.37 286.25 260.23 286.25 260.65 286.22 261.06 286.13 261.26 286.06 261.63 285.87 261.98 285.63 262.13 285.49 262.4 285.17 262.62 284.81 262.7 284.61 262.82 284.21 262.89 283.8 262.89 283.59 262.89 230.04 262.86 229.62 262.77 229.21 262.7 229.01 262.52 228.63 262.27 228.29 262.13 228.13 261.81 227.86 261.45 227.65 261.26 227.56 260.85 227.44 260.44 227.38 260.23 227.37 227.37 227.37 227.37 227.37"></polygon><g><polygon class="cls-44" points="292.66 185.22 292.48 186.2 292.18 187.25 292.17 187.27 291.78 188.25 291.3 189.13 291.24 189.23 290.67 190.04 290.02 190.77 289.38 191.35 278.5 184.29 278.58 184.26 279.38 183.94 280.22 183.51 280.95 183 281.63 182.39 282.24 181.71 282.74 180.98 283.18 180.14 283.5 179.34 283.78 178.36 283.96 177.3 284.05 176.16 284.05 175.79 284.05 28.29 284.05 27.92 283.96 26.78 283.78 25.72 283.5 24.74 283.18 23.93 282.74 23.1 282.24 22.37 281.63 21.69 280.95 21.08 280.22 20.58 279.38 20.14 278.58 19.82 278.49 19.79 289.38 12.73 290.01 13.3 290.67 14.03 291.24 14.84 291.3 14.94 291.77 15.83 292.17 16.8 292.17 16.83 292.48 17.88 292.66 18.85 292.79 20.05 292.81 20.93 292.81 183.15 292.78 184.02 292.66 185.22"></polygon><polygon class="cls-35" points="292.66 185.22 292.48 186.2 292.18 187.25 292.17 187.27 291.78 188.25 291.3 189.13 291.24 189.23 290.67 190.04 290.02 190.77 289.38 191.35 278.5 184.29 278.58 184.26 279.38 183.94 280.22 183.51 280.95 183 281.63 182.39 282.24 181.71 282.74 180.98 283.18 180.14 283.5 179.34 283.78 178.36 283.96 177.3 284.05 176.16 284.05 175.79 284.05 28.29 284.05 27.92 283.96 26.78 283.78 25.72 283.5 24.74 283.18 23.93 282.74 23.1 282.24 22.37 281.63 21.69 280.95 21.08 280.22 20.58 279.38 20.14 278.58 19.82 278.49 19.79 289.38 12.73 290.01 13.3 290.67 14.03 291.24 14.84 291.3 14.94 291.77 15.83 292.17 16.8 292.17 16.83 292.48 17.88 292.66 18.85 292.79 20.05 292.81 20.93 292.81 183.15 292.78 184.02 292.66 185.22"></polygon></g><g><polygon class="cls-42" points="277.6 19.54 276.54 19.36 275.4 19.27 275.03 19.27 28.31 19.27 27.94 19.27 26.8 19.36 25.74 19.54 24.87 19.79 13.98 12.73 14.06 12.65 14.87 12.08 14.97 12.02 15.86 11.55 16.83 11.15 16.86 11.14 17.9 10.84 18.88 10.66 20.08 10.53 20.96 10.51 282.39 10.51 283.26 10.54 284.46 10.66 285.44 10.84 286.49 11.14 286.51 11.15 287.49 11.54 288.38 12.02 288.47 12.08 289.28 12.65 289.38 12.73 278.49 19.79 277.6 19.54"></polygon><polygon class="cls-36" points="277.6 19.54 276.54 19.36 275.4 19.27 275.03 19.27 28.31 19.27 27.94 19.27 26.8 19.36 25.74 19.54 24.87 19.79 13.98 12.73 14.06 12.65 14.87 12.08 14.97 12.02 15.86 11.55 16.83 11.15 16.86 11.14 17.9 10.84 18.88 10.66 20.08 10.53 20.96 10.51 282.39 10.51 283.26 10.54 284.46 10.66 285.44 10.84 286.49 11.14 286.51 11.15 287.49 11.54 288.38 12.02 288.47 12.08 289.28 12.65 289.38 12.73 278.49 19.79 277.6 19.54"></polygon></g><polygon class="cls-41" points="25.74 184.54 26.8 184.72 27.94 184.81 28.31 184.81 275.03 184.81 275.4 184.81 276.54 184.72 277.6 184.54 278.5 184.29 289.38 191.35 289.29 191.43 288.47 192 288.38 192.06 287.49 192.53 286.52 192.93 286.49 192.93 285.44 193.24 284.46 193.42 283.26 193.55 282.39 193.57 20.96 193.57 20.08 193.54 18.88 193.42 17.91 193.24 16.86 192.94 16.84 192.93 15.86 192.54 14.97 192.06 14.88 192 14.06 191.43 13.98 191.35 24.87 184.29 25.74 184.54"></polygon><polygon class="cls-43" points="24.77 19.82 23.96 20.14 23.13 20.58 22.39 21.08 21.71 21.68 21.11 22.37 20.6 23.1 20.16 23.93 19.84 24.74 19.57 25.72 19.39 26.78 19.3 27.92 19.3 28.29 19.3 175.79 19.3 176.16 19.38 177.3 19.57 178.36 19.84 179.34 20.16 180.14 20.6 180.98 21.11 181.71 21.71 182.39 22.39 183 23.13 183.5 23.96 183.94 24.77 184.26 24.87 184.29 13.98 191.35 13.33 190.78 12.68 190.05 12.11 189.24 12.05 189.14 11.57 188.25 11.18 187.28 11.17 187.25 10.87 186.2 10.68 185.22 10.56 184.02 10.54 183.15 10.54 20.93 10.56 20.06 10.69 18.86 10.87 17.88 11.17 16.83 11.18 16.81 11.57 15.83 12.05 14.94 12.1 14.85 12.68 14.04 13.33 13.31 13.98 12.73 24.87 19.79 24.77 19.82"></polygon><g><polygon class="cls-48" points="265.95 286.35 265.76 286.96 265.64 287.24 265.32 287.78 265.11 288.02 262.73 284.53 262.82 284.21 262.89 283.8 262.89 283.59 262.89 230.04 262.86 229.62 262.77 229.21 262.73 229.08 265.12 225.58 265.12 225.59 265.49 226.1 265.76 226.67 265.87 226.97 266.01 227.58 266.05 228.21 266.05 285.41 266.04 285.73 265.95 286.35"></polygon><polygon class="cls-11" points="265.95 286.35 265.76 286.96 265.64 287.24 265.32 287.78 265.11 288.02 262.73 284.53 262.82 284.21 262.89 283.8 262.89 283.59 262.89 230.04 262.86 229.62 262.77 229.21 262.73 229.08 265.12 225.58 265.12 225.59 265.49 226.1 265.76 226.67 265.87 226.97 266.01 227.58 266.05 228.21 266.05 285.41 266.04 285.73 265.95 286.35"></polygon></g><g><polygon class="cls-49" points="262.7 229.01 262.52 228.63 262.27 228.29 262.13 228.13 261.81 227.86 261.45 227.65 261.26 227.56 260.85 227.44 260.44 227.38 260.23 227.37 227.37 227.37 227.37 227.37 226.95 227.4 226.54 227.49 226.34 227.56 225.97 227.75 225.62 227.99 225.47 228.13 225.2 228.46 224.98 228.82 224.9 229.01 224.87 229.08 222.49 225.59 222.69 225.36 222.92 225.14 223.43 224.78 224 224.5 224.3 224.4 224.92 224.26 225.54 224.21 262.06 224.21 262.37 224.22 262.99 224.32 263.6 224.5 263.89 224.63 264.43 224.95 264.91 225.36 265.12 225.58 262.73 229.08 262.7 229.01"></polygon><polygon class="cls-10" points="262.7 229.01 262.52 228.63 262.27 228.29 262.13 228.13 261.81 227.86 261.45 227.65 261.26 227.56 260.85 227.44 260.44 227.38 260.23 227.37 227.37 227.37 227.37 227.37 226.95 227.4 226.54 227.49 226.34 227.56 225.97 227.75 225.62 227.99 225.47 228.13 225.2 228.46 224.98 228.82 224.9 229.01 224.87 229.08 222.49 225.59 222.69 225.36 222.92 225.14 223.43 224.78 224 224.5 224.3 224.4 224.92 224.26 225.54 224.21 262.06 224.21 262.37 224.22 262.99 224.32 263.6 224.5 263.89 224.63 264.43 224.95 264.91 225.36 265.12 225.58 262.73 229.08 262.7 229.01"></polygon></g><polygon class="cls-50" points="224.77 229.41 224.71 229.83 224.71 230.04 224.71 283.59 224.74 284.01 224.83 284.42 224.87 284.53 222.48 288.04 222.11 287.52 221.83 286.96 221.73 286.66 221.59 286.04 221.55 285.41 221.55 228.21 221.56 227.89 221.65 227.27 221.83 226.67 221.96 226.38 222.28 225.84 222.49 225.59 224.87 229.08 224.77 229.41"></polygon><polygon class="cls-51" points="224.9 284.61 225.08 284.99 225.33 285.33 225.47 285.49 225.79 285.76 226.15 285.98 226.34 286.06 226.74 286.18 227.16 286.24 227.37 286.25 260.23 286.25 260.65 286.22 261.06 286.13 261.26 286.06 261.63 285.87 261.98 285.63 262.13 285.49 262.4 285.17 262.62 284.81 262.7 284.61 262.73 284.53 265.11 288.02 264.91 288.27 264.68 288.48 264.16 288.84 263.6 289.12 263.3 289.23 262.68 289.36 262.06 289.41 225.54 289.41 225.23 289.4 224.61 289.31 224 289.12 223.71 289 223.17 288.67 222.69 288.27 222.48 288.04 222.48 288.04 224.87 284.53 224.9 284.61"></polygon><path class="cls-39" d="M274.31,172.19c0,1.17-.95,2.13-2.13,2.13s-2.13-.95-2.13-2.13.95-2.13,2.13-2.13,2.13.95,2.13,2.13Z"></path><g><polyline class="cls-7" points="221.55 285.41 221.59 286.04 221.73 286.66 221.83 286.96 222.11 287.52 222.48 288.04 222.69 288.27 223.17 288.67 223.71 289 224 289.12 224.61 289.31 225.23 289.4 225.54 289.41"></polyline><polyline class="cls-6" points="224.71 283.59 224.74 284.01 224.83 284.42 224.9 284.61 225.08 284.99 225.33 285.33 225.47 285.49 225.79 285.76 226.15 285.98 226.34 286.06 226.74 286.18 227.16 286.24 227.37 286.25"></polyline><polyline class="cls-5" points="20.96 10.51 20.08 10.53 18.88 10.66 17.9 10.84 16.86 11.14 16.83 11.15 15.86 11.55 14.97 12.02 14.87 12.08 14.06 12.65 13.33 13.31 12.68 14.04 12.1 14.85 12.05 14.94 11.57 15.83 11.18 16.81 11.17 16.83 10.87 17.88 10.69 18.86 10.56 20.06 10.54 20.93"></polyline><polyline class="cls-4" points="10.54 183.15 10.56 184.02 10.68 185.22 10.87 186.2 11.17 187.25 11.18 187.28 11.57 188.25 12.05 189.14 12.11 189.24 12.68 190.05 13.33 190.78 14.06 191.43 14.88 192 14.97 192.06 15.86 192.54 16.84 192.93 16.86 192.94 17.91 193.24 18.88 193.42 20.08 193.54 20.96 193.57 282.39 193.57"></polyline><polyline class="cls-8" points="28.31 19.27 27.94 19.27 26.8 19.36 25.74 19.54 24.77 19.82 23.96 20.14 23.13 20.58 22.39 21.08 21.71 21.68 21.11 22.37 20.6 23.1 20.16 23.93 19.84 24.74 19.57 25.72 19.39 26.78 19.3 27.92 19.3 28.29"></polyline><polyline class="cls-9" points="19.3 175.79 19.3 176.16 19.38 177.3 19.57 178.36 19.84 179.34 20.16 180.14 20.6 180.98 21.11 181.71 21.71 182.39 22.39 183 23.13 183.5 23.96 183.94 24.77 184.26 25.74 184.54 26.8 184.72 27.94 184.81 28.31 184.81 275.03 184.81"></polyline></g></g></symbol><clipPath id="clippath"><rect class="cls-1" x="280.93" y="74.93" width="279.05" height="279.05"></rect></clipPath></defs><g id="Main_2"><rect width="840" height="428"></rect><circle class="cls-2" cx="504.2" cy="117.57" r="63.46"></circle><path class="cls-2" d="M279.56,135.91c-16.57,0-30,13.43-30,30h5c0-13.81,11.19-25,25-25v-5Z"></path><path class="cls-2" d="M279.56,120.91c-24.85,0-45,20.15-45,45h5c0-22.09,17.91-40,40-40v-5Z"></path><path class="cls-2" d="M279.56,105.91c-33.14,0-60,26.86-60,60h5c0-30.38,24.62-55,55-55v-5Z"></path></g><g id="Main_1"><g class="cls-53"><use width="303.31" height="303.31" transform="translate(280.91 353.97) scale(.92 -.92)" xlink:href="#Sensos-Label-3D"></use></g></g><g id="Typo"><g class="cls-32"><g class="cls-32"><path class="cls-52" d="M595.85,103.64c-1.18,0-2.28-.21-3.28-.64-1-.42-1.87-1.02-2.62-1.79-.74-.77-1.32-1.68-1.73-2.72-.41-1.05-.61-2.2-.61-3.44s.2-2.4.61-3.44c.41-1.05.98-1.96,1.73-2.74.74-.78,1.62-1.38,2.62-1.8s2.09-.64,3.28-.64,2.3.21,3.3.64c1,.42,1.87,1.02,2.62,1.8.74.78,1.32,1.69,1.73,2.74s.61,2.2.61,3.44-.2,2.37-.61,3.42-.98,1.96-1.73,2.74c-.74.78-1.62,1.38-2.62,1.8-1,.42-2.1.64-3.3.64ZM595.85,101.79c.91,0,1.75-.16,2.53-.49s1.44-.8,2-1.4c.56-.61,1-1.32,1.31-2.15.31-.82.47-1.72.47-2.7s-.16-1.9-.47-2.72c-.31-.82-.75-1.54-1.31-2.15-.56-.61-1.23-1.08-2-1.42s-1.62-.5-2.53-.5-1.76.17-2.53.5c-.78.34-1.44.81-2,1.42-.56.61-.99,1.32-1.3,2.15-.3.82-.46,1.73-.46,2.72s.15,1.88.46,2.7c.3.82.74,1.54,1.3,2.15.56.61,1.23,1.08,2,1.4.78.33,1.62.49,2.53.49Z"></path><path class="cls-52" d="M607.03,108.68v-17.81h1.8l.05,3.05-.34.05c.14-.61.46-1.16.94-1.67.48-.5,1.06-.91,1.75-1.21.69-.3,1.42-.46,2.18-.46,1.12,0,2.12.28,3.01.84.89.56,1.6,1.33,2.12,2.3.53.98.79,2.1.79,3.36s-.26,2.36-.77,3.34c-.51.98-1.22,1.75-2.11,2.32-.9.57-1.9.85-3.02.85-.78,0-1.53-.16-2.23-.48-.7-.32-1.3-.74-1.8-1.26-.5-.52-.82-1.08-.98-1.69h.43v8.47h-1.82ZM613.15,101.91c.85,0,1.6-.21,2.26-.62.66-.42,1.18-.98,1.56-1.7.38-.72.58-1.54.58-2.45s-.19-1.75-.58-2.47c-.38-.72-.9-1.29-1.56-1.7-.66-.42-1.41-.62-2.26-.62s-1.6.2-2.27.61-1.19.97-1.57,1.69c-.38.72-.58,1.54-.58,2.47s.19,1.75.58,2.47c.38.72.91,1.29,1.57,1.7.66.42,1.42.62,2.27.62Z"></path><path class="cls-52" d="M627.48,103.64c-1.25,0-2.36-.27-3.32-.82-.97-.54-1.72-1.3-2.27-2.28-.54-.98-.82-2.1-.82-3.36,0-.98.15-1.86.46-2.65s.73-1.48,1.28-2.08c.55-.59,1.21-1.05,1.98-1.38.77-.33,1.6-.49,2.5-.49.85,0,1.62.15,2.32.46.7.3,1.3.72,1.8,1.26.5.54.88,1.17,1.14,1.91.26.74.37,1.54.34,2.42l-.02.84h-10.44l-.26-1.51h9.34l-.43.41v-.58c-.03-.58-.2-1.13-.5-1.67-.3-.54-.73-.97-1.28-1.31s-1.21-.5-1.98-.5c-.9,0-1.67.18-2.33.54-.66.36-1.16.89-1.51,1.6-.35.7-.53,1.58-.53,2.62s.19,1.85.58,2.58c.38.73.93,1.29,1.64,1.69.71.4,1.57.6,2.58.6.59,0,1.18-.1,1.76-.3s1.23-.6,1.93-1.19l.94,1.3c-.37.37-.81.69-1.32.97-.51.28-1.07.5-1.68.67s-1.23.25-1.87.25Z"></path><path class="cls-52" d="M635.45,103.4v-12.53h1.78l.07,2.62-.29.12c.16-.54.47-1.04.94-1.49.46-.45,1.02-.81,1.67-1.09.65-.28,1.32-.42,2-.42.93,0,1.7.18,2.33.55.62.37,1.1.94,1.42,1.7.32.77.48,1.74.48,2.93v7.61h-1.82v-7.51c0-.83-.11-1.52-.32-2.05-.22-.54-.55-.93-1-1.19s-1-.38-1.66-.36c-.54,0-1.05.09-1.51.28s-.86.44-1.2.76c-.34.32-.6.69-.79,1.1-.19.42-.29.86-.29,1.34v7.63h-1.8Z"></path><path class="cls-52" d="M657.36,88.16c-.45,0-.79-.12-1.02-.35-.23-.23-.35-.55-.35-.95s.12-.72.36-.96.58-.36,1.01-.36.77.12,1.01.35c.24.23.36.56.36.97,0,.38-.12.7-.36.94s-.58.36-1.01.36ZM656.47,103.4v-12.53h1.8v12.53h-1.8Z"></path><path class="cls-52" d="M662.21,103.4v-12.53h1.78l.07,2.62-.29.12c.16-.54.47-1.04.94-1.49.46-.45,1.02-.81,1.67-1.09.65-.28,1.32-.42,2-.42.93,0,1.7.18,2.33.55.62.37,1.1.94,1.42,1.7.32.77.48,1.74.48,2.93v7.61h-1.82v-7.51c0-.83-.11-1.52-.32-2.05-.22-.54-.55-.93-1-1.19-.45-.26-1-.38-1.66-.36-.54,0-1.05.09-1.51.28-.46.18-.86.44-1.2.76-.34.32-.6.69-.79,1.1s-.29.86-.29,1.34v7.63h-1.8Z"></path><path class="cls-52" d="M681.12,103.64c-1.14,0-2.16-.28-3.06-.84-.9-.56-1.62-1.33-2.14-2.32s-.78-2.1-.78-3.35.26-2.39.79-3.37c.53-.98,1.24-1.76,2.14-2.32.9-.56,1.9-.84,3.02-.84.62,0,1.23.1,1.81.29s1.11.46,1.57.8c.46.34.85.74,1.15,1.18.3.44.49.9.55,1.38l-.55-.19v-8.42h1.8v17.76h-1.78l-.05-3.12.46-.17c-.06.45-.24.88-.54,1.31-.3.42-.67.8-1.12,1.14-.45.34-.96.6-1.52.79-.57.19-1.16.29-1.76.29ZM681.38,101.98c.83,0,1.58-.21,2.23-.62.66-.42,1.17-.99,1.55-1.73.38-.74.56-1.58.56-2.52s-.19-1.78-.56-2.51c-.38-.73-.89-1.3-1.55-1.73-.66-.42-1.4-.64-2.23-.64s-1.62.21-2.27.64c-.65.42-1.16,1-1.54,1.73-.38.73-.56,1.56-.56,2.51s.18,1.76.55,2.5c.37.74.88,1.32,1.54,1.74.66.42,1.42.64,2.28.64Z"></path><path class="cls-52" d="M692.3,88.16c-.45,0-.79-.12-1.02-.35-.23-.23-.35-.55-.35-.95s.12-.72.36-.96c.24-.24.58-.36,1.01-.36s.77.12,1.01.35.36.56.36.97c0,.38-.12.7-.36.94-.24.24-.58.36-1.01.36ZM691.41,103.4v-12.53h1.8v12.53h-1.8Z"></path><path class="cls-52" d="M702.43,103.64c-1.18,0-2.24-.28-3.17-.85-.93-.57-1.66-1.34-2.2-2.33-.54-.98-.8-2.1-.8-3.35s.27-2.36.8-3.35c.54-.98,1.27-1.76,2.2-2.32.93-.56,1.99-.84,3.19-.84,1.07,0,2.05.21,2.93.64.88.42,1.58,1.01,2.11,1.76l-1.06,1.3c-.3-.4-.67-.75-1.09-1.06-.42-.3-.88-.54-1.37-.71-.49-.17-.97-.25-1.45-.25-.85,0-1.61.21-2.28.64s-1.2,1-1.6,1.72c-.39.72-.59,1.54-.59,2.47s.2,1.76.59,2.48c.39.73.92,1.3,1.6,1.72s1.42.62,2.26.62c.48,0,.95-.08,1.42-.23.46-.15.9-.37,1.32-.66.42-.29.8-.65,1.15-1.08l1.06,1.3c-.54.72-1.27,1.3-2.18,1.73-.91.43-1.86.65-2.83.65Z"></path><path class="cls-52" d="M714.67,103.64c-1.09,0-2.07-.28-2.95-.85-.88-.57-1.58-1.34-2.09-2.33-.51-.98-.77-2.1-.77-3.35s.26-2.38.79-3.36c.53-.98,1.24-1.74,2.12-2.3.89-.56,1.88-.84,2.99-.84.66,0,1.26.1,1.82.29.56.19,1.06.46,1.5.8.44.34.81.74,1.1,1.2s.5.95.61,1.48l-.53-.26.07-3.24h1.8v12.53h-1.82v-3.07l.48-.31c-.11.48-.33.94-.65,1.38-.32.44-.71.83-1.16,1.16s-.97.6-1.54.79c-.57.19-1.16.29-1.79.29ZM715.08,101.91c.83,0,1.58-.2,2.23-.61.66-.41,1.17-.98,1.55-1.7.38-.73.56-1.56.56-2.48s-.19-1.75-.56-2.47c-.38-.72-.89-1.29-1.55-1.7s-1.4-.62-2.23-.62-1.6.21-2.24.62c-.65.42-1.16.98-1.54,1.7-.38.72-.56,1.54-.56,2.47s.18,1.73.55,2.46c.37.73.88,1.3,1.54,1.72.66.42,1.41.62,2.26.62Z"></path><path class="cls-52" d="M723.55,92.6v-1.73h7.8v1.73h-7.8ZM726.38,103.4v-15.82h1.8v15.82h-1.8Z"></path><path class="cls-52" d="M734.93,88.16c-.45,0-.79-.12-1.02-.35-.23-.23-.35-.55-.35-.95s.12-.72.36-.96c.24-.24.58-.36,1.01-.36s.77.12,1.01.35.36.56.36.97c0,.38-.12.7-.36.94-.24.24-.58.36-1.01.36ZM734.04,103.4v-12.53h1.8v12.53h-1.8Z"></path><path class="cls-52" d="M745.32,103.64c-1.25,0-2.36-.28-3.32-.84-.97-.56-1.73-1.34-2.28-2.33-.55-.99-.83-2.12-.83-3.38s.28-2.36.83-3.34c.55-.98,1.31-1.74,2.28-2.3.97-.56,2.08-.84,3.32-.84s2.33.28,3.3.84c.97.56,1.73,1.33,2.28,2.3.55.98.83,2.09.83,3.34s-.28,2.39-.83,3.38-1.31,1.77-2.28,2.33c-.97.56-2.07.84-3.3.84ZM745.32,101.94c.88,0,1.66-.21,2.35-.64.69-.42,1.22-1,1.61-1.73.38-.73.58-1.56.58-2.48s-.19-1.75-.58-2.47-.92-1.28-1.61-1.69c-.69-.41-1.47-.61-2.35-.61s-1.67.2-2.36.61c-.7.41-1.24.98-1.63,1.7-.39.73-.58,1.55-.56,2.46-.02.93.17,1.76.56,2.48.39.73.94,1.3,1.63,1.73s1.48.64,2.36.64Z"></path><path class="cls-52" d="M754.34,103.4v-12.53h1.78l.07,2.62-.29.12c.16-.54.47-1.04.94-1.49.46-.45,1.02-.81,1.67-1.09.65-.28,1.32-.42,2-.42.93,0,1.7.18,2.33.55.62.37,1.1.94,1.42,1.7.32.77.48,1.74.48,2.93v7.61h-1.82v-7.51c0-.83-.11-1.52-.32-2.05-.22-.54-.55-.93-1-1.19s-1-.38-1.66-.36c-.54,0-1.05.09-1.51.28s-.86.44-1.2.76c-.34.32-.6.69-.79,1.1-.19.42-.29.86-.29,1.34v7.63h-1.8Z"></path></g><g class="cls-32"><path class="cls-52" d="M773.78,92.6v-1.73h7.8v1.73h-7.8ZM776.61,103.4v-15.82h1.8v15.82h-1.8Z"></path></g><g class="cls-32"><path class="cls-52" d="M788.57,103.64c-1.09,0-2.07-.28-2.95-.85-.88-.57-1.58-1.34-2.09-2.33-.51-.98-.77-2.1-.77-3.35s.26-2.38.79-3.36c.53-.98,1.24-1.74,2.12-2.3.89-.56,1.88-.84,2.99-.84.66,0,1.26.1,1.82.29.56.19,1.06.46,1.5.8.44.34.81.74,1.1,1.2s.5.95.61,1.48l-.53-.26.07-3.24h1.8v12.53h-1.82v-3.07l.48-.31c-.11.48-.33.94-.65,1.38-.32.44-.71.83-1.16,1.16s-.97.6-1.54.79c-.57.19-1.16.29-1.79.29ZM788.98,101.91c.83,0,1.58-.2,2.23-.61.66-.41,1.17-.98,1.55-1.7.38-.73.56-1.56.56-2.48s-.19-1.75-.56-2.47c-.38-.72-.89-1.29-1.55-1.7s-1.4-.62-2.23-.62-1.6.21-2.24.62c-.65.42-1.16.98-1.54,1.7-.38.72-.56,1.54-.56,2.47s.18,1.73.55,2.46c.37.73.88,1.3,1.54,1.72.66.42,1.41.62,2.26.62Z"></path><path class="cls-52" d="M804.91,103.64c-.59,0-1.17-.09-1.73-.28-.56-.18-1.07-.44-1.52-.76s-.84-.69-1.15-1.1c-.31-.42-.52-.85-.64-1.3l.53.02-.07,3.14h-1.78v-17.74h1.8v8.23l-.36.1c.11-.45.32-.88.61-1.28.3-.41.67-.77,1.12-1.08.45-.31.94-.56,1.48-.73.54-.18,1.09-.26,1.67-.26,1.12,0,2.12.28,3.01.84.89.56,1.6,1.33,2.12,2.3.53.98.79,2.1.79,3.36s-.26,2.39-.77,3.37c-.51.98-1.21,1.76-2.1,2.32-.89.56-1.89.84-3.01.84ZM804.62,101.94c.85,0,1.6-.21,2.26-.64s1.17-1,1.55-1.73c.38-.73.56-1.55.56-2.46s-.19-1.75-.56-2.47c-.38-.72-.89-1.29-1.55-1.7s-1.41-.62-2.26-.62-1.6.21-2.26.62c-.66.42-1.17.98-1.55,1.7-.38.72-.56,1.54-.56,2.47s.19,1.76.56,2.48c.38.73.89,1.3,1.55,1.72.66.42,1.41.62,2.26.62Z"></path></g></g><line class="cls-2" x1="567.66" y1="117.57" x2="811.65" y2="117.57"></line><g class="cls-32"><g class="cls-32"><path class="cls-52" d="M581.21,247.07c-1.2,0-2.3-.21-3.31-.64-1.01-.42-1.88-1.02-2.62-1.8-.74-.78-1.31-1.69-1.72-2.75-.41-1.06-.61-2.21-.61-3.46s.2-2.36.61-3.39c.41-1.03.99-1.94,1.74-2.71.75-.78,1.62-1.37,2.62-1.79s2.08-.62,3.26-.62c.78,0,1.56.12,2.33.37.77.25,1.48.59,2.12,1.02.65.43,1.18.93,1.6,1.49l-1.3,1.34c-.4-.48-.86-.9-1.38-1.25-.52-.35-1.07-.62-1.64-.82s-1.15-.29-1.73-.29c-.9,0-1.73.16-2.51.49s-1.44.79-2,1.38c-.56.59-1,1.3-1.31,2.11-.31.82-.47,1.71-.47,2.66s.16,1.9.47,2.74c.31.83.76,1.55,1.34,2.15s1.27,1.06,2.06,1.39,1.68.49,2.65.49c.58,0,1.15-.08,1.73-.25s1.1-.4,1.58-.71c.48-.3.89-.65,1.22-1.03l.96,1.56c-.37.45-.86.85-1.48,1.19-.62.34-1.29.62-2.03.82-.74.2-1.47.3-2.21.3Z"></path><path class="cls-52" d="M595.3,247.07c-1.25,0-2.36-.28-3.32-.84s-1.73-1.34-2.28-2.33c-.55-.99-.83-2.12-.83-3.38s.28-2.36.83-3.34c.55-.97,1.31-1.74,2.28-2.3s2.08-.84,3.32-.84,2.33.28,3.3.84,1.73,1.33,2.28,2.3c.55.98.83,2.09.83,3.34s-.28,2.39-.83,3.38-1.31,1.77-2.28,2.33-2.07.84-3.3.84ZM595.3,245.37c.88,0,1.66-.21,2.35-.64.69-.42,1.22-1,1.61-1.73.38-.73.58-1.55.58-2.48s-.19-1.75-.58-2.47c-.38-.72-.92-1.29-1.61-1.69-.69-.41-1.47-.61-2.35-.61s-1.67.21-2.36.61c-.7.41-1.24.97-1.63,1.7-.39.73-.58,1.55-.56,2.46-.02.93.17,1.76.56,2.48.39.73.94,1.3,1.63,1.73s1.48.64,2.36.64Z"></path><path class="cls-52" d="M604.32,246.83v-12.53h1.78l.07,2.62-.29.12c.16-.54.47-1.04.94-1.49.46-.45,1.02-.81,1.67-1.09.65-.28,1.32-.42,2-.42.93,0,1.7.18,2.33.55.62.37,1.1.94,1.42,1.71.32.77.48,1.74.48,2.93v7.61h-1.82v-7.51c0-.83-.11-1.52-.32-2.05-.22-.54-.55-.93-1-1.19-.45-.26-1-.38-1.66-.36-.54,0-1.05.09-1.51.28-.46.18-.86.44-1.2.76-.34.32-.6.69-.79,1.11s-.29.86-.29,1.34v7.63h-1.8Z"></path><path class="cls-52" d="M623.24,247.07c-1.14,0-2.16-.28-3.06-.84-.9-.56-1.62-1.33-2.14-2.32s-.78-2.1-.78-3.35.26-2.39.79-3.37c.53-.98,1.24-1.76,2.14-2.32.9-.56,1.9-.84,3.02-.84.62,0,1.23.1,1.81.29.58.19,1.11.46,1.57.8.46.34.85.74,1.15,1.18s.49.9.55,1.38l-.55-.19v-8.42h1.8v17.76h-1.78l-.05-3.12.46-.17c-.06.45-.24.88-.54,1.31-.3.43-.67.8-1.12,1.14-.45.34-.96.6-1.52.79-.57.19-1.16.29-1.76.29ZM623.5,245.41c.83,0,1.58-.21,2.23-.62.66-.42,1.17-.99,1.55-1.73s.56-1.58.56-2.52-.19-1.78-.56-2.51-.89-1.3-1.55-1.73c-.66-.42-1.4-.64-2.23-.64s-1.62.21-2.27.64c-.65.42-1.16,1-1.54,1.73s-.56,1.56-.56,2.51.18,1.76.55,2.5c.37.74.88,1.32,1.54,1.74.66.42,1.42.63,2.28.63Z"></path><path class="cls-52" d="M634.42,231.59c-.45,0-.79-.12-1.02-.35-.23-.23-.35-.55-.35-.95s.12-.72.36-.96.58-.36,1.01-.36.77.12,1.01.35c.24.23.36.56.36.97,0,.38-.12.7-.36.94-.24.24-.58.36-1.01.36ZM633.53,246.83v-12.53h1.8v12.53h-1.8Z"></path><path class="cls-52" d="M638.16,236.03v-1.73h7.8v1.73h-7.8ZM641,246.83v-15.82h1.8v15.82h-1.8Z"></path><path class="cls-52" d="M649.54,231.59c-.45,0-.79-.12-1.02-.35-.23-.23-.35-.55-.35-.95s.12-.72.36-.96c.24-.24.58-.36,1.01-.36s.77.12,1.01.35.36.56.36.97c0,.38-.12.7-.36.94s-.58.36-1.01.36ZM648.65,246.83v-12.53h1.8v12.53h-1.8Z"></path><path class="cls-52" d="M659.93,247.07c-1.25,0-2.36-.28-3.32-.84s-1.73-1.34-2.28-2.33c-.55-.99-.83-2.12-.83-3.38s.28-2.36.83-3.34c.55-.97,1.31-1.74,2.28-2.3s2.08-.84,3.32-.84,2.33.28,3.3.84,1.73,1.33,2.28,2.3c.55.98.83,2.09.83,3.34s-.28,2.39-.83,3.38-1.31,1.77-2.28,2.33-2.07.84-3.3.84ZM659.93,245.37c.88,0,1.66-.21,2.35-.64.69-.42,1.22-1,1.61-1.73.38-.73.58-1.55.58-2.48s-.19-1.75-.58-2.47c-.38-.72-.92-1.29-1.61-1.69-.69-.41-1.47-.61-2.35-.61s-1.67.21-2.36.61c-.7.41-1.24.97-1.63,1.7-.39.73-.58,1.55-.56,2.46-.02.93.17,1.76.56,2.48.39.73.94,1.3,1.63,1.73s1.48.64,2.36.64Z"></path><path class="cls-52" d="M668.95,246.83v-12.53h1.78l.07,2.62-.29.12c.16-.54.47-1.04.94-1.49.46-.45,1.02-.81,1.67-1.09.65-.28,1.32-.42,2-.42.93,0,1.7.18,2.33.55.62.37,1.1.94,1.42,1.71.32.77.48,1.74.48,2.93v7.61h-1.82v-7.51c0-.83-.11-1.52-.32-2.05-.22-.54-.55-.93-1-1.19-.45-.26-1-.38-1.66-.36-.54,0-1.05.09-1.51.28-.46.18-.86.44-1.2.76-.34.32-.6.69-.79,1.11s-.29.86-.29,1.34v7.63h-1.8Z"></path><path class="cls-52" d="M689.47,246.83v-12.53h1.8l.05,2.86-.36.12c.13-.48.34-.92.64-1.31s.65-.73,1.07-1.02c.42-.29.87-.51,1.37-.66.5-.15,1.02-.23,1.56-.23.66,0,1.24.11,1.76.32.52.22.96.58,1.32,1.1s.64,1.21.83,2.05l-.43-.22.17-.41c.16-.37.4-.72.71-1.07.31-.34.67-.65,1.08-.92.41-.27.86-.48,1.34-.63.49-.15.99-.23,1.5-.23.88,0,1.62.19,2.23.56.61.38,1.07.95,1.38,1.71.31.77.47,1.74.47,2.93v7.56h-1.85v-7.46c0-.83-.1-1.51-.31-2.04-.21-.53-.52-.92-.92-1.19s-.92-.4-1.55-.4c-.54,0-1.04.09-1.5.28-.46.18-.85.44-1.18.77s-.58.7-.77,1.12c-.18.42-.28.86-.28,1.34v7.58h-1.82v-7.49c0-.8-.11-1.46-.32-1.99-.22-.53-.53-.93-.95-1.2s-.93-.41-1.54-.41c-.53,0-1.02.09-1.46.28-.45.18-.84.44-1.16.76s-.58.69-.77,1.1c-.18.42-.28.86-.28,1.34v7.61h-1.82Z"></path><path class="cls-52" d="M716.91,247.07c-1.25,0-2.36-.28-3.32-.84-.97-.56-1.73-1.34-2.28-2.33s-.83-2.12-.83-3.38.28-2.36.83-3.34c.55-.97,1.31-1.74,2.28-2.3.97-.56,2.08-.84,3.32-.84s2.33.28,3.3.84c.97.56,1.73,1.33,2.28,2.3.55.98.83,2.09.83,3.34s-.28,2.39-.83,3.38c-.55.99-1.31,1.77-2.28,2.33-.97.56-2.07.84-3.3.84ZM716.91,245.37c.88,0,1.66-.21,2.35-.64.69-.42,1.22-1,1.61-1.73.38-.73.58-1.55.58-2.48s-.19-1.75-.58-2.47c-.38-.72-.92-1.29-1.61-1.69-.69-.41-1.47-.61-2.35-.61s-1.67.21-2.36.61c-.7.41-1.24.97-1.63,1.7-.39.73-.58,1.55-.56,2.46-.02.93.17,1.76.56,2.48.39.73.94,1.3,1.63,1.73.7.42,1.48.64,2.36.64Z"></path><path class="cls-52" d="M725.93,246.83v-12.53h1.78l.07,2.62-.29.12c.16-.54.47-1.04.94-1.49.46-.45,1.02-.81,1.67-1.09.65-.28,1.32-.42,2-.42.93,0,1.7.18,2.33.55.62.37,1.1.94,1.42,1.71.32.77.48,1.74.48,2.93v7.61h-1.82v-7.51c0-.83-.11-1.52-.32-2.05-.22-.54-.55-.93-1-1.19-.45-.26-1-.38-1.66-.36-.54,0-1.05.09-1.51.28-.46.18-.86.44-1.2.76-.34.32-.6.69-.79,1.11s-.29.86-.29,1.34v7.63h-1.8Z"></path><path class="cls-52" d="M741.12,231.59c-.45,0-.79-.12-1.02-.35-.23-.23-.35-.55-.35-.95s.12-.72.36-.96.58-.36,1.01-.36.77.12,1.01.35c.24.23.36.56.36.97,0,.38-.12.7-.36.94-.24.24-.58.36-1.01.36ZM740.23,246.83v-12.53h1.8v12.53h-1.8Z"></path></g><g class="cls-32"><path class="cls-52" d="M744.87,236.03v-1.73h7.8v1.73h-7.8ZM747.7,246.83v-15.82h1.8v15.82h-1.8Z"></path></g><g class="cls-32"><path class="cls-52" d="M760.3,247.07c-1.25,0-2.36-.28-3.32-.84-.97-.56-1.73-1.34-2.28-2.33-.55-.99-.83-2.12-.83-3.38s.28-2.36.83-3.34c.55-.97,1.31-1.74,2.28-2.3.97-.56,2.08-.84,3.32-.84s2.33.28,3.3.84c.97.56,1.73,1.33,2.28,2.3.55.98.83,2.09.83,3.34s-.28,2.39-.83,3.38-1.31,1.77-2.28,2.33c-.97.56-2.07.84-3.3.84ZM760.3,245.37c.88,0,1.66-.21,2.35-.64.69-.42,1.22-1,1.61-1.73.38-.73.58-1.55.58-2.48s-.19-1.75-.58-2.47c-.38-.72-.92-1.29-1.61-1.69-.69-.41-1.47-.61-2.35-.61s-1.67.21-2.36.61c-.7.41-1.24.97-1.63,1.7s-.58,1.55-.56,2.46c-.02.93.17,1.76.56,2.48.39.73.94,1.3,1.63,1.73.7.42,1.48.64,2.36.64Z"></path><path class="cls-52" d="M769.32,246.83v-12.53h1.8l.05,3.34-.19-.46c.18-.56.46-1.08.85-1.56.39-.48.86-.87,1.4-1.15.54-.29,1.14-.43,1.8-.43.27,0,.53.02.77.06.24.04.44.09.6.16l-.5,2.02c-.21-.1-.42-.16-.64-.21-.22-.04-.42-.06-.61-.06-.54,0-1.03.1-1.46.29s-.8.46-1.1.8c-.3.35-.54.74-.7,1.19-.16.45-.24.93-.24,1.44v7.1h-1.82Z"></path><path class="cls-52" d="M779.64,231.59c-.45,0-.79-.12-1.02-.35-.23-.23-.35-.55-.35-.95s.12-.72.36-.96c.24-.24.58-.36,1.01-.36s.77.12,1.01.35c.24.23.36.56.36.97,0,.38-.12.7-.36.94-.24.24-.58.36-1.01.36ZM778.75,246.83v-12.53h1.8v12.53h-1.8Z"></path><path class="cls-52" d="M784.49,246.83v-12.53h1.78l.07,2.62-.29.12c.16-.54.47-1.04.94-1.49s1.02-.81,1.67-1.09,1.32-.42,2-.42c.93,0,1.7.18,2.33.55.62.37,1.1.94,1.42,1.71.32.77.48,1.74.48,2.93v7.61h-1.82v-7.51c0-.83-.11-1.52-.32-2.05-.22-.54-.55-.93-1-1.19s-1-.38-1.66-.36c-.54,0-1.05.09-1.51.28s-.86.44-1.2.76c-.34.32-.6.69-.79,1.11s-.29.86-.29,1.34v7.63h-1.8Z"></path><path class="cls-52" d="M803.71,252.35c-.93,0-1.81-.14-2.64-.43-.83-.29-1.52-.65-2.06-1.08l.72-1.51c.32.26.69.48,1.12.68.42.2.88.36,1.38.48.5.12,1,.18,1.51.18.93,0,1.72-.17,2.37-.52.65-.34,1.14-.85,1.49-1.52s.52-1.5.52-2.5v-2.4l.29-.07c-.14.61-.46,1.17-.94,1.69-.48.52-1.06.94-1.75,1.25-.69.31-1.42.47-2.18.47-1.17,0-2.21-.28-3.13-.84s-1.64-1.33-2.17-2.32c-.53-.98-.79-2.1-.79-3.35s.27-2.39.8-3.37c.54-.98,1.26-1.76,2.17-2.32.91-.56,1.94-.84,3.07-.84.5,0,.98.06,1.44.18.46.12.89.29,1.28.52.39.22.75.48,1.07.77.32.29.59.6.8.94.22.34.37.68.47,1.03l-.5-.07.07-3.1h1.8v11.76c0,1.01-.14,1.9-.43,2.68-.29.78-.71,1.43-1.26,1.97-.55.54-1.21.94-1.97,1.22-.76.28-1.6.42-2.53.42ZM803.73,245.34c.85,0,1.6-.2,2.27-.61s1.19-.97,1.57-1.69c.38-.72.58-1.55.58-2.5s-.19-1.75-.56-2.47-.9-1.29-1.57-1.7-1.43-.62-2.28-.62-1.63.21-2.29.62-1.19.98-1.57,1.7-.58,1.54-.58,2.47.19,1.73.56,2.46c.38.73.9,1.3,1.56,1.72s1.44.62,2.32.62Z"></path></g></g><g class="cls-32"><g class="cls-32"><path class="cls-52" d="M30.82,303.53v-16.8h6.34c1.15,0,2.2.2,3.16.61.95.41,1.78.99,2.48,1.74.7.75,1.25,1.64,1.63,2.66.38,1.02.58,2.15.58,3.38s-.19,2.36-.58,3.4c-.38,1.03-.92,1.92-1.62,2.66s-1.52,1.32-2.48,1.73c-.96.41-2.02.61-3.17.61h-6.34ZM32.69,302.04l-.22-.34h4.56c.88,0,1.69-.16,2.44-.47s1.38-.76,1.92-1.34.95-1.28,1.25-2.08c.3-.8.44-1.7.44-2.69s-.15-1.89-.44-2.69c-.3-.8-.72-1.49-1.26-2.08-.54-.58-1.18-1.03-1.92-1.34-.74-.31-1.54-.47-2.42-.47h-4.63l.29-.29v13.78Z"></path><path class="cls-52" d="M52.37,303.77c-.96,0-1.77-.2-2.44-.59-.66-.39-1.17-.96-1.51-1.72-.34-.75-.52-1.69-.52-2.81v-7.66h1.82v7.3c0,.85.12,1.56.35,2.12.23.57.58,1,1.06,1.28.47.29,1.05.43,1.74.43.53,0,1.02-.09,1.46-.28.45-.18.84-.44,1.18-.76s.6-.7.79-1.13c.19-.43.29-.89.29-1.37v-7.61h1.8v12.53h-1.78l-.07-2.64.29-.14c-.19.56-.51,1.07-.96,1.52s-.98.82-1.6,1.09c-.62.27-1.25.41-1.91.41Z"></path></g><g class="cls-32"><path class="cls-52" d="M61.9,303.53v-12.53h1.8l.05,3.34-.19-.46c.18-.56.46-1.08.85-1.56s.86-.86,1.4-1.15c.54-.29,1.14-.43,1.8-.43.27,0,.53.02.77.06.24.04.44.09.6.16l-.5,2.02c-.21-.1-.42-.16-.64-.2-.22-.04-.42-.06-.61-.06-.54,0-1.03.1-1.46.29-.43.19-.8.46-1.1.8-.3.34-.54.74-.7,1.19-.16.45-.24.93-.24,1.44v7.1h-1.82Z"></path></g><g class="cls-32"><path class="cls-52" d="M75.22,303.77c-1.09,0-2.07-.28-2.95-.85-.88-.57-1.58-1.34-2.09-2.33-.51-.98-.77-2.1-.77-3.35s.26-2.38.79-3.36c.53-.98,1.24-1.74,2.12-2.3.89-.56,1.88-.84,2.99-.84.66,0,1.26.1,1.82.29s1.06.46,1.5.8c.44.34.81.74,1.1,1.2s.5.95.61,1.48l-.53-.26.07-3.24h1.8v12.53h-1.82v-3.07l.48-.31c-.11.48-.33.94-.65,1.38-.32.44-.71.83-1.16,1.16s-.97.6-1.54.79c-.57.19-1.16.29-1.79.29ZM75.63,302.04c.83,0,1.58-.2,2.23-.61.66-.41,1.17-.98,1.55-1.7.38-.73.56-1.56.56-2.48s-.19-1.75-.56-2.47c-.38-.72-.89-1.29-1.55-1.7-.66-.42-1.4-.62-2.23-.62s-1.6.21-2.24.62-1.16.98-1.54,1.7c-.38.72-.56,1.54-.56,2.47s.18,1.73.55,2.46c.37.73.88,1.3,1.54,1.72.66.42,1.41.62,2.26.62Z"></path><path class="cls-52" d="M91.56,303.77c-.59,0-1.17-.09-1.73-.28s-1.07-.44-1.52-.76-.84-.69-1.15-1.1c-.31-.42-.52-.85-.64-1.3l.53.02-.07,3.14h-1.78v-17.74h1.8v8.23l-.36.1c.11-.45.32-.88.61-1.28.3-.41.67-.77,1.12-1.08.45-.31.94-.56,1.48-.73.54-.18,1.09-.26,1.67-.26,1.12,0,2.12.28,3.01.84.89.56,1.6,1.33,2.12,2.3.53.98.79,2.1.79,3.36s-.26,2.39-.77,3.37c-.51.98-1.21,1.76-2.1,2.32-.89.56-1.89.84-3.01.84ZM91.27,302.07c.85,0,1.6-.21,2.26-.64.66-.42,1.17-1,1.55-1.73.38-.73.56-1.55.56-2.46s-.19-1.75-.56-2.47c-.38-.72-.89-1.29-1.55-1.7-.66-.42-1.41-.62-2.26-.62s-1.6.21-2.26.62c-.66.42-1.17.98-1.55,1.7-.38.72-.56,1.54-.56,2.47s.19,1.76.56,2.48c.38.73.89,1.3,1.55,1.72.66.42,1.41.62,2.26.62Z"></path></g><g class="cls-32"><path class="cls-52" d="M100.11,303.53v-17.76h1.8v17.76h-1.8Z"></path></g><g class="cls-32"><path class="cls-52" d="M110.74,303.77c-1.25,0-2.36-.27-3.32-.82-.97-.54-1.72-1.3-2.27-2.28-.54-.98-.82-2.1-.82-3.36,0-.98.15-1.86.46-2.65s.73-1.48,1.28-2.08c.55-.59,1.21-1.05,1.98-1.38.77-.33,1.6-.49,2.5-.49.85,0,1.62.15,2.32.46.7.3,1.3.72,1.8,1.26.5.54.88,1.17,1.14,1.91.26.74.37,1.54.34,2.42l-.02.84h-10.44l-.26-1.51h9.34l-.43.41v-.58c-.03-.58-.2-1.13-.5-1.67-.3-.54-.73-.97-1.28-1.31-.55-.34-1.21-.5-1.98-.5-.9,0-1.67.18-2.33.54-.66.36-1.16.89-1.51,1.6-.35.7-.53,1.58-.53,2.62s.19,1.85.58,2.58c.38.73.93,1.29,1.64,1.69.71.4,1.57.6,2.58.6.59,0,1.18-.1,1.76-.3s1.23-.6,1.93-1.19l.94,1.3c-.37.37-.81.69-1.32.97-.51.28-1.07.5-1.68.67-.61.17-1.23.25-1.87.25Z"></path><path class="cls-52" d="M131.14,303.77c-1.2,0-2.27-.24-3.22-.71-.94-.47-1.69-1.12-2.23-1.93-.54-.82-.82-1.74-.82-2.76,0-1.22.35-2.29,1.04-3.22.7-.93,1.72-1.64,3.06-2.14l1.15,1.37c-1.09.27-1.92.73-2.48,1.37-.57.64-.85,1.44-.85,2.4,0,.75.2,1.42.6,2,.4.58.95,1.04,1.66,1.38s1.5.5,2.4.5c.8,0,1.53-.15,2.2-.46.66-.3,1.26-.74,1.78-1.3.52-.56.94-1.23,1.27-2.02.33-.78.56-1.66.71-2.64h1.78c-.13.98-.35,1.88-.67,2.71-.32.83-.72,1.58-1.19,2.26-.47.67-1.02,1.24-1.64,1.72s-1.32.83-2.08,1.08-1.58.37-2.46.37ZM137.53,303.53l-1.9-1.99-.41-.48-4.46-4.92c-.5-.56-.94-1.08-1.32-1.56-.38-.48-.7-.93-.96-1.34s-.45-.82-.58-1.2c-.13-.38-.19-.78-.19-1.18,0-.83.21-1.57.64-2.22.42-.65,1.01-1.16,1.75-1.52s1.6-.55,2.56-.55c.75,0,1.44.13,2.06.38s1.16.62,1.61,1.08c.45.46.78,1,.98,1.61l-1.42.91c-.34-.83-.76-1.42-1.28-1.78-.52-.35-1.17-.53-1.96-.53-.62,0-1.16.1-1.61.3-.45.2-.79.48-1.03.85-.24.37-.36.83-.36,1.39,0,.38.1.78.29,1.19.19.41.44.82.73,1.22.3.41.6.79.92,1.14.32.35.61.67.86.96l4.01,4.46.6.65,2.88,3.12h-2.42Z"></path><path class="cls-52" d="M154.47,303.77c-1.14,0-2.16-.28-3.06-.84-.9-.56-1.62-1.33-2.14-2.32-.52-.98-.78-2.1-.78-3.35s.26-2.39.79-3.37c.53-.98,1.24-1.76,2.14-2.32.9-.56,1.9-.84,3.02-.84.62,0,1.23.1,1.81.29s1.11.46,1.57.8c.46.34.85.74,1.15,1.18.3.44.49.9.55,1.38l-.55-.19v-8.42h1.8v17.76h-1.78l-.05-3.12.46-.17c-.06.45-.24.88-.54,1.31-.3.42-.67.8-1.12,1.14-.45.34-.96.6-1.52.79-.57.19-1.16.29-1.76.29ZM154.73,302.11c.83,0,1.58-.21,2.23-.62.66-.42,1.17-.99,1.55-1.73.38-.74.56-1.58.56-2.52s-.19-1.78-.56-2.51c-.38-.73-.89-1.3-1.55-1.73-.66-.42-1.4-.64-2.23-.64s-1.62.21-2.27.64c-.65.42-1.16,1-1.54,1.73-.38.73-.56,1.56-.56,2.51s.18,1.76.55,2.5c.37.74.88,1.32,1.54,1.74.66.42,1.42.64,2.28.64Z"></path><path class="cls-52" d="M165.65,288.29c-.45,0-.79-.12-1.02-.35-.23-.23-.35-.55-.35-.95s.12-.72.36-.96c.24-.24.58-.36,1.01-.36s.77.12,1.01.35c.24.23.36.56.36.97,0,.38-.12.7-.36.94-.24.24-.58.36-1.01.36ZM164.77,303.53v-12.53h1.8v12.53h-1.8Z"></path><path class="cls-52" d="M174.6,303.77c-1.07,0-2.03-.2-2.88-.6-.85-.4-1.52-.93-2.02-1.58l1.27-1.1c.46.56,1.01.98,1.64,1.27.63.29,1.34.43,2.12.43.4,0,.76-.04,1.08-.13.32-.09.6-.22.84-.4.24-.18.42-.38.55-.62.13-.24.19-.5.19-.79,0-.53-.23-.97-.7-1.32-.21-.14-.5-.29-.89-.44-.38-.15-.85-.3-1.39-.44-.9-.26-1.64-.52-2.23-.78-.59-.26-1.06-.57-1.39-.92-.24-.29-.42-.6-.54-.94s-.18-.7-.18-1.1c0-.51.11-.98.32-1.42.22-.43.52-.81.91-1.14.39-.33.86-.58,1.39-.74.54-.17,1.12-.25,1.74-.25.59,0,1.18.08,1.75.24.58.16,1.11.39,1.61.7.5.3.92.67,1.27,1.08l-1.1,1.2c-.3-.32-.64-.61-1.01-.86-.37-.25-.76-.46-1.16-.6-.41-.14-.83-.22-1.26-.22-.38,0-.74.05-1.07.14-.33.1-.61.23-.84.4s-.41.37-.53.61c-.12.24-.18.5-.18.79,0,.24.05.46.14.65.1.19.23.36.41.5.22.18.54.34.95.49.41.15.92.31,1.52.47.7.19,1.3.39,1.79.59.49.2.89.44,1.21.71.43.32.74.69.92,1.1.18.42.28.89.28,1.42,0,.7-.2,1.33-.59,1.87-.39.54-.93.97-1.62,1.28-.69.31-1.47.47-2.35.47Z"></path><path class="cls-52" d="M182,308.81v-17.81h1.8l.05,3.05-.34.05c.14-.61.46-1.16.94-1.67s1.06-.91,1.75-1.21c.69-.3,1.42-.46,2.18-.46,1.12,0,2.12.28,3.01.84.89.56,1.6,1.33,2.12,2.3.53.98.79,2.1.79,3.36s-.26,2.36-.77,3.34-1.22,1.75-2.11,2.32c-.9.57-1.9.85-3.02.85-.78,0-1.53-.16-2.23-.48-.7-.32-1.3-.74-1.8-1.26-.5-.52-.82-1.08-.98-1.69h.43v8.47h-1.82ZM188.12,302.04c.85,0,1.6-.21,2.26-.62.66-.42,1.18-.98,1.56-1.7.38-.72.58-1.54.58-2.45s-.19-1.75-.58-2.47c-.38-.72-.9-1.29-1.56-1.7-.66-.42-1.41-.62-2.26-.62s-1.6.2-2.27.61c-.66.41-1.19.97-1.57,1.69-.38.72-.58,1.54-.58,2.47s.19,1.75.58,2.47c.38.72.91,1.29,1.57,1.7.66.42,1.42.62,2.27.62Z"></path><path class="cls-52" d="M202.47,303.77c-1.25,0-2.36-.28-3.32-.84-.97-.56-1.73-1.34-2.28-2.33-.55-.99-.83-2.12-.83-3.38s.28-2.36.83-3.34c.55-.98,1.31-1.74,2.28-2.3.97-.56,2.08-.84,3.32-.84s2.33.28,3.3.84c.97.56,1.73,1.33,2.28,2.3.55.98.83,2.09.83,3.34s-.28,2.39-.83,3.38c-.55.99-1.31,1.77-2.28,2.33-.97.56-2.07.84-3.3.84ZM202.47,302.07c.88,0,1.66-.21,2.35-.64s1.22-1,1.61-1.73c.38-.73.58-1.56.58-2.48s-.19-1.75-.58-2.47c-.38-.72-.92-1.28-1.61-1.69-.69-.41-1.47-.61-2.35-.61s-1.67.2-2.36.61c-.7.41-1.24.98-1.63,1.7-.39.73-.58,1.55-.56,2.46-.02.93.17,1.76.56,2.48.39.73.94,1.3,1.63,1.73.7.42,1.48.64,2.36.64Z"></path><path class="cls-52" d="M215.6,303.77c-1.07,0-2.03-.2-2.88-.6-.85-.4-1.52-.93-2.02-1.58l1.27-1.1c.46.56,1.01.98,1.64,1.27.63.29,1.34.43,2.12.43.4,0,.76-.04,1.08-.13.32-.09.6-.22.84-.4.24-.18.42-.38.55-.62.13-.24.19-.5.19-.79,0-.53-.23-.97-.7-1.32-.21-.14-.5-.29-.89-.44-.38-.15-.85-.3-1.39-.44-.9-.26-1.64-.52-2.23-.78-.59-.26-1.06-.57-1.39-.92-.24-.29-.42-.6-.54-.94s-.18-.7-.18-1.1c0-.51.11-.98.32-1.42.22-.43.52-.81.91-1.14.39-.33.86-.58,1.39-.74.54-.17,1.12-.25,1.74-.25.59,0,1.18.08,1.75.24.58.16,1.11.39,1.61.7.5.3.92.67,1.27,1.08l-1.1,1.2c-.3-.32-.64-.61-1.01-.86-.37-.25-.76-.46-1.16-.6-.41-.14-.83-.22-1.26-.22-.38,0-.74.05-1.07.14-.33.1-.61.23-.84.4s-.41.37-.53.61c-.12.24-.18.5-.18.79,0,.24.05.46.14.65.1.19.23.36.41.5.22.18.54.34.95.49.41.15.92.31,1.52.47.7.19,1.3.39,1.79.59.49.2.89.44,1.21.71.43.32.74.69.92,1.1.18.42.28.89.28,1.42,0,.7-.2,1.33-.59,1.87-.39.54-.93.97-1.62,1.28-.69.31-1.47.47-2.35.47Z"></path><path class="cls-52" d="M227.88,303.77c-1.09,0-2.07-.28-2.95-.85-.88-.57-1.58-1.34-2.09-2.33-.51-.98-.77-2.1-.77-3.35s.26-2.38.79-3.36c.53-.98,1.24-1.74,2.12-2.3.89-.56,1.88-.84,2.99-.84.66,0,1.26.1,1.82.29s1.06.46,1.5.8c.44.34.81.74,1.1,1.2s.5.95.61,1.48l-.53-.26.07-3.24h1.8v12.53h-1.82v-3.07l.48-.31c-.11.48-.33.94-.65,1.38-.32.44-.71.83-1.16,1.16s-.97.6-1.54.79c-.57.19-1.16.29-1.79.29ZM228.29,302.04c.83,0,1.58-.2,2.23-.61.66-.41,1.17-.98,1.55-1.7.38-.73.56-1.56.56-2.48s-.19-1.75-.56-2.47c-.38-.72-.89-1.29-1.55-1.7-.66-.42-1.4-.62-2.23-.62s-1.6.21-2.24.62-1.16.98-1.54,1.7c-.38.72-.56,1.54-.56,2.47s.18,1.73.55,2.46c.37.73.88,1.3,1.54,1.72.66.42,1.41.62,2.26.62Z"></path><path class="cls-52" d="M244.23,303.77c-.59,0-1.17-.09-1.73-.28s-1.07-.44-1.52-.76-.84-.69-1.15-1.1c-.31-.42-.52-.85-.64-1.3l.53.02-.07,3.14h-1.78v-17.74h1.8v8.23l-.36.1c.11-.45.32-.88.61-1.28.3-.41.67-.77,1.12-1.08.45-.31.94-.56,1.48-.73.54-.18,1.09-.26,1.67-.26,1.12,0,2.12.28,3.01.84.89.56,1.6,1.33,2.12,2.3.53.98.79,2.1.79,3.36s-.26,2.39-.77,3.37c-.51.98-1.21,1.76-2.1,2.32-.89.56-1.89.84-3.01.84ZM243.94,302.07c.85,0,1.6-.21,2.26-.64.66-.42,1.17-1,1.55-1.73.38-.73.56-1.55.56-2.46s-.19-1.75-.56-2.47c-.38-.72-.89-1.29-1.55-1.7-.66-.42-1.41-.62-2.26-.62s-1.6.21-2.26.62c-.66.42-1.17.98-1.55,1.7-.38.72-.56,1.54-.56,2.47s.19,1.76.56,2.48c.38.73.89,1.3,1.55,1.72.66.42,1.41.62,2.26.62Z"></path></g><g class="cls-32"><path class="cls-52" d="M252.77,303.53v-17.76h1.8v17.76h-1.8Z"></path></g><g class="cls-32"><path class="cls-52" d="M263.4,303.77c-1.25,0-2.36-.27-3.32-.82-.97-.54-1.72-1.3-2.27-2.28-.54-.98-.82-2.1-.82-3.36,0-.98.15-1.86.46-2.65s.73-1.48,1.28-2.08c.55-.59,1.21-1.05,1.98-1.38.77-.33,1.6-.49,2.5-.49.85,0,1.62.15,2.32.46.7.3,1.3.72,1.8,1.26.5.54.88,1.17,1.14,1.91.26.74.37,1.54.34,2.42l-.02.84h-10.44l-.26-1.51h9.34l-.43.41v-.58c-.03-.58-.2-1.13-.5-1.67-.3-.54-.73-.97-1.28-1.31-.55-.34-1.21-.5-1.98-.5-.9,0-1.67.18-2.33.54-.66.36-1.16.89-1.51,1.6-.35.7-.53,1.58-.53,2.62s.19,1.85.58,2.58c.38.73.93,1.29,1.64,1.69.71.4,1.57.6,2.58.6.59,0,1.18-.1,1.76-.3s1.23-.6,1.93-1.19l.94,1.3c-.37.37-.81.69-1.32.97-.51.28-1.07.5-1.68.67-.61.17-1.23.25-1.87.25Z"></path></g></g><g class="cls-32"><g class="cls-32"><path class="cls-52" d="M30.82,127.27v-16.8h6.58c.98,0,1.86.23,2.65.68s1.42,1.08,1.88,1.86c.46.78.7,1.67.7,2.66,0,.93-.22,1.77-.67,2.52-.45.75-1.06,1.35-1.82,1.79-.77.44-1.63.66-2.59.66h-4.85v6.62h-1.87ZM32.69,118.82h5.02c.59,0,1.11-.14,1.56-.41.45-.27.8-.64,1.06-1.12.26-.47.38-1.01.38-1.62,0-.66-.15-1.24-.46-1.75s-.72-.91-1.26-1.2c-.54-.29-1.15-.43-1.84-.43h-4.46v6.53ZM41.07,127.27l-4.22-7.39,1.8-.62,4.66,8.02h-2.23Z"></path></g><g class="cls-32"><path class="cls-52" d="M50.98,127.51c-1.25,0-2.36-.27-3.32-.82-.97-.54-1.72-1.3-2.27-2.28-.54-.98-.82-2.1-.82-3.36,0-.98.15-1.86.46-2.65s.73-1.48,1.28-2.08c.55-.59,1.21-1.05,1.98-1.38.77-.33,1.6-.49,2.5-.49.85,0,1.62.15,2.32.46.7.3,1.3.72,1.8,1.26.5.54.88,1.17,1.14,1.91.26.74.37,1.54.34,2.42l-.02.84h-10.44l-.26-1.51h9.34l-.43.41v-.58c-.03-.58-.2-1.13-.5-1.67-.3-.54-.73-.97-1.28-1.31-.55-.34-1.21-.5-1.98-.5-.9,0-1.67.18-2.33.54-.66.36-1.16.89-1.51,1.6-.35.7-.53,1.58-.53,2.62s.19,1.85.58,2.58c.38.73.93,1.29,1.64,1.69.71.4,1.57.6,2.58.6.59,0,1.18-.1,1.76-.3s1.23-.6,1.93-1.19l.94,1.3c-.37.37-.81.69-1.32.97-.51.28-1.07.5-1.68.67-.61.17-1.23.25-1.87.25Z"></path><path class="cls-52" d="M63.85,127.51c-1.09,0-2.07-.28-2.95-.85-.88-.57-1.58-1.34-2.09-2.33-.51-.98-.77-2.1-.77-3.35s.26-2.38.79-3.36c.53-.98,1.24-1.74,2.12-2.3.89-.56,1.88-.84,2.99-.84.66,0,1.26.1,1.82.29s1.06.46,1.5.8c.44.34.81.74,1.1,1.2s.5.95.61,1.48l-.53-.26.07-3.24h1.8v12.53h-1.82v-3.07l.48-.31c-.11.48-.33.94-.65,1.38-.32.44-.71.83-1.16,1.16s-.97.6-1.54.79c-.57.19-1.16.29-1.79.29ZM64.25,125.78c.83,0,1.58-.2,2.23-.61.66-.41,1.17-.98,1.55-1.7.38-.73.56-1.56.56-2.48s-.19-1.75-.56-2.47c-.38-.72-.89-1.29-1.55-1.7-.66-.42-1.4-.62-2.23-.62s-1.6.21-2.24.62-1.16.98-1.54,1.7c-.38.72-.56,1.54-.56,2.47s.18,1.73.55,2.46c.37.73.88,1.3,1.54,1.72.66.42,1.41.62,2.26.62Z"></path><path class="cls-52" d="M73.88,127.27v-17.76h1.8v17.76h-1.8Z"></path><path class="cls-52" d="M78.82,121.49v-1.8h6.77v1.8h-6.77Z"></path><path class="cls-52" d="M87.58,116.47v-1.73h7.8v1.73h-7.8ZM90.41,127.27v-15.82h1.8v15.82h-1.8Z"></path><path class="cls-52" d="M98.96,112.03c-.45,0-.79-.12-1.02-.35-.23-.23-.35-.55-.35-.95s.12-.72.36-.96c.24-.24.58-.36,1.01-.36s.77.12,1.01.35c.24.23.36.56.36.97,0,.38-.12.7-.36.94-.24.24-.58.36-1.01.36ZM98.07,127.27v-12.53h1.8v12.53h-1.8Z"></path><path class="cls-52" d="M103.78,127.27v-12.53h1.8l.05,2.86-.36.12c.13-.48.34-.92.64-1.31.3-.39.65-.73,1.07-1.02s.87-.51,1.37-.66c.5-.15,1.02-.23,1.56-.23.66,0,1.24.11,1.76.32.52.22.96.58,1.32,1.1.36.52.64,1.2.83,2.05l-.43-.22.17-.41c.16-.37.4-.72.71-1.07.31-.34.67-.65,1.08-.92.41-.27.86-.48,1.34-.64.49-.15.99-.23,1.5-.23.88,0,1.62.19,2.23.56s1.07.95,1.38,1.72c.31.77.47,1.74.47,2.93v7.56h-1.85v-7.46c0-.83-.1-1.51-.31-2.04s-.52-.92-.92-1.19c-.41-.26-.92-.4-1.55-.4-.54,0-1.04.09-1.5.28-.46.18-.85.44-1.18.77-.33.33-.58.7-.77,1.12s-.28.86-.28,1.34v7.58h-1.82v-7.49c0-.8-.11-1.46-.32-1.99-.22-.53-.53-.93-.95-1.2-.42-.27-.93-.41-1.54-.41-.53,0-1.02.09-1.46.28-.45.18-.84.44-1.16.76-.33.32-.58.69-.77,1.1-.18.42-.28.86-.28,1.34v7.61h-1.82Z"></path><path class="cls-52" d="M131.19,127.51c-1.25,0-2.36-.27-3.32-.82-.97-.54-1.72-1.3-2.27-2.28-.54-.98-.82-2.1-.82-3.36,0-.98.15-1.86.46-2.65s.73-1.48,1.28-2.08c.55-.59,1.21-1.05,1.98-1.38.77-.33,1.6-.49,2.5-.49.85,0,1.62.15,2.32.46.7.3,1.3.72,1.8,1.26.5.54.88,1.17,1.14,1.91.26.74.37,1.54.34,2.42l-.02.84h-10.44l-.26-1.51h9.34l-.43.41v-.58c-.03-.58-.2-1.13-.5-1.67-.3-.54-.73-.97-1.28-1.31-.55-.34-1.21-.5-1.98-.5-.9,0-1.67.18-2.33.54-.66.36-1.16.89-1.51,1.6-.35.7-.53,1.58-.53,2.62s.19,1.85.58,2.58c.38.73.93,1.29,1.64,1.69.71.4,1.57.6,2.58.6.59,0,1.18-.1,1.76-.3s1.23-.6,1.93-1.19l.94,1.3c-.37.37-.81.69-1.32.97-.51.28-1.07.5-1.68.67-.61.17-1.23.25-1.87.25Z"></path><path class="cls-52" d="M150.96,127.51c-1.14,0-2.16-.28-3.06-.84-.9-.56-1.62-1.33-2.14-2.32-.52-.98-.78-2.1-.78-3.35s.26-2.39.79-3.37c.53-.98,1.24-1.76,2.14-2.32.9-.56,1.9-.84,3.02-.84.62,0,1.23.1,1.81.29s1.11.46,1.57.8c.46.34.85.74,1.15,1.18.3.44.49.9.55,1.38l-.55-.19v-8.42h1.8v17.76h-1.78l-.05-3.12.46-.17c-.06.45-.24.88-.54,1.31-.3.42-.67.8-1.12,1.14-.45.34-.96.6-1.52.79-.57.19-1.16.29-1.76.29ZM151.23,125.85c.83,0,1.58-.21,2.23-.62.66-.42,1.17-.99,1.55-1.73.38-.74.56-1.58.56-2.52s-.19-1.78-.56-2.51c-.38-.73-.89-1.3-1.55-1.73-.66-.42-1.4-.64-2.23-.64s-1.62.21-2.27.64c-.65.42-1.16,1-1.54,1.73-.38.73-.56,1.56-.56,2.51s.18,1.76.55,2.5c.37.74.88,1.32,1.54,1.74.66.42,1.42.64,2.28.64Z"></path><path class="cls-52" d="M165.68,127.51c-1.09,0-2.07-.28-2.95-.85-.88-.57-1.58-1.34-2.09-2.33-.51-.98-.77-2.1-.77-3.35s.26-2.38.79-3.36c.53-.98,1.24-1.74,2.12-2.3.89-.56,1.88-.84,2.99-.84.66,0,1.26.1,1.82.29s1.06.46,1.5.8c.44.34.81.74,1.1,1.2s.5.95.61,1.48l-.53-.26.07-3.24h1.8v12.53h-1.82v-3.07l.48-.31c-.11.48-.33.94-.65,1.38-.32.44-.71.83-1.16,1.16s-.97.6-1.54.79c-.57.19-1.16.29-1.79.29ZM166.08,125.78c.83,0,1.58-.2,2.23-.61.66-.41,1.17-.98,1.55-1.7.38-.73.56-1.56.56-2.48s-.19-1.75-.56-2.47c-.38-.72-.89-1.29-1.55-1.7-.66-.42-1.4-.62-2.23-.62s-1.6.21-2.24.62-1.16.98-1.54,1.7c-.38.72-.56,1.54-.56,2.47s.18,1.73.55,2.46c.37.73.88,1.3,1.54,1.72.66.42,1.41.62,2.26.62Z"></path></g><g class="cls-32"><path class="cls-52" d="M174.56,116.47v-1.73h7.8v1.73h-7.8ZM177.39,127.27v-15.82h1.8v15.82h-1.8Z"></path></g><g class="cls-32"><path class="cls-52" d="M189.34,127.51c-1.09,0-2.07-.28-2.95-.85-.88-.57-1.58-1.34-2.09-2.33-.51-.98-.77-2.1-.77-3.35s.26-2.38.79-3.36c.53-.98,1.24-1.74,2.12-2.3.89-.56,1.88-.84,2.99-.84.66,0,1.26.1,1.82.29s1.06.46,1.5.8c.44.34.81.74,1.1,1.2s.5.95.61,1.48l-.53-.26.07-3.24h1.8v12.53h-1.82v-3.07l.48-.31c-.11.48-.33.94-.65,1.38-.32.44-.71.83-1.16,1.16s-.97.6-1.54.79c-.57.19-1.16.29-1.79.29ZM189.75,125.78c.83,0,1.58-.2,2.23-.61.66-.41,1.17-.98,1.55-1.7.38-.73.56-1.56.56-2.48s-.19-1.75-.56-2.47c-.38-.72-.89-1.29-1.55-1.7-.66-.42-1.4-.62-2.23-.62s-1.6.21-2.24.62-1.16.98-1.54,1.7c-.38.72-.56,1.54-.56,2.47s.18,1.73.55,2.46c.37.73.88,1.3,1.54,1.72.66.42,1.41.62,2.26.62Z"></path></g><g class="cls-32"><path class="cls-52" d="M35.38,159.51c-1.18,0-2.24-.28-3.17-.85-.93-.57-1.66-1.34-2.2-2.33-.54-.98-.8-2.1-.8-3.35s.27-2.36.8-3.35c.54-.98,1.27-1.76,2.2-2.32.93-.56,1.99-.84,3.19-.84,1.07,0,2.05.21,2.93.64.88.42,1.58,1.01,2.11,1.76l-1.06,1.3c-.3-.4-.67-.75-1.09-1.06-.42-.3-.88-.54-1.37-.71-.49-.17-.97-.25-1.45-.25-.85,0-1.61.21-2.28.64-.67.42-1.2,1-1.6,1.72-.39.72-.59,1.54-.59,2.47s.2,1.76.59,2.48c.39.73.92,1.3,1.6,1.72.67.42,1.42.62,2.26.62.48,0,.95-.08,1.42-.23.46-.15.9-.37,1.32-.66.42-.29.8-.65,1.15-1.08l1.06,1.3c-.54.72-1.27,1.3-2.18,1.73-.91.43-1.86.65-2.83.65Z"></path><path class="cls-52" d="M48.27,159.51c-1.25,0-2.36-.28-3.32-.84-.97-.56-1.73-1.34-2.28-2.33-.55-.99-.83-2.12-.83-3.38s.28-2.36.83-3.34c.55-.98,1.31-1.74,2.28-2.3.97-.56,2.08-.84,3.32-.84s2.33.28,3.3.84c.97.56,1.73,1.33,2.28,2.3.55.98.83,2.09.83,3.34s-.28,2.39-.83,3.38c-.55.99-1.31,1.77-2.28,2.33-.97.56-2.07.84-3.3.84ZM48.27,157.81c.88,0,1.66-.21,2.35-.64s1.22-1,1.61-1.73c.38-.73.58-1.56.58-2.48s-.19-1.75-.58-2.47c-.38-.72-.92-1.28-1.61-1.69-.69-.41-1.47-.61-2.35-.61s-1.67.2-2.36.61c-.7.41-1.24.98-1.63,1.7-.39.73-.58,1.55-.56,2.46-.02.93.17,1.76.56,2.48.39.73.94,1.3,1.63,1.73.7.42,1.48.64,2.36.64Z"></path><path class="cls-52" d="M57.29,159.27v-12.53h1.78l.07,2.62-.29.12c.16-.54.47-1.04.94-1.49.46-.45,1.02-.81,1.67-1.09.65-.28,1.32-.42,2-.42.93,0,1.7.18,2.33.55.62.37,1.1.94,1.42,1.7.32.77.48,1.74.48,2.93v7.61h-1.82v-7.51c0-.83-.11-1.52-.32-2.05-.22-.54-.55-.93-1-1.19-.45-.26-1-.38-1.66-.36-.54,0-1.05.09-1.51.28-.46.18-.86.44-1.2.76-.34.32-.6.69-.79,1.1-.19.42-.29.86-.29,1.34v7.63h-1.8Z"></path><path class="cls-52" d="M71.12,159.27v-12.53h1.78l.07,2.62-.29.12c.16-.54.47-1.04.94-1.49.46-.45,1.02-.81,1.67-1.09.65-.28,1.32-.42,2-.42.93,0,1.7.18,2.33.55.62.37,1.1.94,1.42,1.7.32.77.48,1.74.48,2.93v7.61h-1.82v-7.51c0-.83-.11-1.52-.32-2.05-.22-.54-.55-.93-1-1.19-.45-.26-1-.38-1.66-.36-.54,0-1.05.09-1.51.28-.46.18-.86.44-1.2.76-.34.32-.6.69-.79,1.1-.19.42-.29.86-.29,1.34v7.63h-1.8Z"></path><path class="cls-52" d="M90.46,159.51c-1.25,0-2.36-.27-3.32-.82-.97-.54-1.72-1.3-2.27-2.28-.54-.98-.82-2.1-.82-3.36,0-.98.15-1.86.46-2.65s.73-1.48,1.28-2.08c.55-.59,1.21-1.05,1.98-1.38.77-.33,1.6-.49,2.5-.49.85,0,1.62.15,2.32.46.7.3,1.3.72,1.8,1.26.5.54.88,1.17,1.14,1.91.26.74.37,1.54.34,2.42l-.02.84h-10.44l-.26-1.51h9.34l-.43.41v-.58c-.03-.58-.2-1.13-.5-1.67-.3-.54-.73-.97-1.28-1.31-.55-.34-1.21-.5-1.98-.5-.9,0-1.67.18-2.33.54-.66.36-1.16.89-1.51,1.6-.35.7-.53,1.58-.53,2.62s.19,1.85.58,2.58c.38.73.93,1.29,1.64,1.69.71.4,1.57.6,2.58.6.59,0,1.18-.1,1.76-.3s1.23-.6,1.93-1.19l.94,1.3c-.37.37-.81.69-1.32.97-.51.28-1.07.5-1.68.67-.61.17-1.23.25-1.87.25Z"></path><path class="cls-52" d="M103.71,159.51c-1.18,0-2.24-.28-3.17-.85-.93-.57-1.66-1.34-2.2-2.33-.54-.98-.8-2.1-.8-3.35s.27-2.36.8-3.35c.54-.98,1.27-1.76,2.2-2.32.93-.56,1.99-.84,3.19-.84,1.07,0,2.05.21,2.93.64.88.42,1.58,1.01,2.11,1.76l-1.06,1.3c-.3-.4-.67-.75-1.09-1.06-.42-.3-.88-.54-1.37-.71-.49-.17-.97-.25-1.45-.25-.85,0-1.61.21-2.28.64-.67.42-1.2,1-1.6,1.72-.39.72-.59,1.54-.59,2.47s.2,1.76.59,2.48c.39.73.92,1.3,1.6,1.72.67.42,1.42.62,2.26.62.48,0,.95-.08,1.42-.23.46-.15.9-.37,1.32-.66.42-.29.8-.65,1.15-1.08l1.06,1.3c-.54.72-1.27,1.3-2.18,1.73-.91.43-1.86.65-2.83.65Z"></path><path class="cls-52" d="M109.95,148.47v-1.73h7.8v1.73h-7.8ZM112.78,159.27v-15.82h1.8v15.82h-1.8Z"></path><path class="cls-52" d="M121.32,144.03c-.45,0-.79-.12-1.02-.35-.23-.23-.35-.55-.35-.95s.12-.72.36-.96c.24-.24.58-.36,1.01-.36s.77.12,1.01.35c.24.23.36.56.36.97,0,.38-.12.7-.36.94-.24.24-.58.36-1.01.36ZM120.44,159.27v-12.53h1.8v12.53h-1.8Z"></path><path class="cls-52" d="M131.72,159.51c-1.25,0-2.36-.28-3.32-.84-.97-.56-1.73-1.34-2.28-2.33-.55-.99-.83-2.12-.83-3.38s.28-2.36.83-3.34c.55-.98,1.31-1.74,2.28-2.3.97-.56,2.08-.84,3.32-.84s2.33.28,3.3.84c.97.56,1.73,1.33,2.28,2.3.55.98.83,2.09.83,3.34s-.28,2.39-.83,3.38c-.55.99-1.31,1.77-2.28,2.33-.97.56-2.07.84-3.3.84ZM131.72,157.81c.88,0,1.66-.21,2.35-.64s1.22-1,1.61-1.73c.38-.73.58-1.56.58-2.48s-.19-1.75-.58-2.47c-.38-.72-.92-1.28-1.61-1.69-.69-.41-1.47-.61-2.35-.61s-1.67.2-2.36.61c-.7.41-1.24.98-1.63,1.7-.39.73-.58,1.55-.56,2.46-.02.93.17,1.76.56,2.48.39.73.94,1.3,1.63,1.73.7.42,1.48.64,2.36.64Z"></path><path class="cls-52" d="M140.74,159.27v-12.53h1.78l.07,2.62-.29.12c.16-.54.47-1.04.94-1.49.46-.45,1.02-.81,1.67-1.09.65-.28,1.32-.42,2-.42.93,0,1.7.18,2.33.55.62.37,1.1.94,1.42,1.7.32.77.48,1.74.48,2.93v7.61h-1.82v-7.51c0-.83-.11-1.52-.32-2.05-.22-.54-.55-.93-1-1.19-.45-.26-1-.38-1.66-.36-.54,0-1.05.09-1.51.28-.46.18-.86.44-1.2.76-.34.32-.6.69-.79,1.1-.19.42-.29.86-.29,1.34v7.63h-1.8Z"></path></g></g><g><line class="cls-2" x1="484.42" y1="261.01" x2="811.65" y2="261.01"></line><path class="cls-52" d="M484.42,268.53c-4.15,0-7.52-3.37-7.52-7.52s3.37-7.52,7.52-7.52,7.52,3.37,7.52,7.52-3.37,7.52-7.52,7.52Z"></path></g><g><line class="cls-2" x1="297.98" y1="317.7" x2="28.35" y2="317.7"></line><path class="cls-52" d="M297.98,310.18c4.15,0,7.52,3.37,7.52,7.52s-3.37,7.52-7.52,7.52-7.52-3.37-7.52-7.52,3.37-7.52,7.52-7.52Z"></path></g></g></svg> 